<svg xmlns="http://www.w3.org/2000/svg" xmlns:xlink="http://www.w3.org/1999/xlink" width="1080" zoomAndPan="magnify" viewBox="0 0 810 809.999993" height="1080" preserveAspectRatio="xMidYMid meet" version="1.0"><defs><clipPath id="97429aee11"><path d="M 112.910156 270.136719 L 697.089844 270.136719 L 697.089844 485.621094 L 112.910156 485.621094 Z M 112.910156 270.136719 " clip-rule="nonzero"/></clipPath></defs><g clip-path="url(#97429aee11)"><path fill="#ffffff" d="M 112.910156 270.136719 L 697.082031 270.136719 L 697.082031 485.621094 L 112.910156 485.621094 Z M 112.910156 270.136719 " fill-opacity="1" fill-rule="nonzero"/></g><path fill="#c53735" d="M 369.007812 348.753906 L 405 348.753906 L 405 422.109375 L 369.007812 422.109375 Z M 369.007812 348.753906 " fill-opacity="1" fill-rule="nonzero"/><path fill="#c53735" d="M 729 275.398438 L 81 275.398438 L 81 495.492188 L 261.007812 495.492188 L 261.007812 532.167969 L 405 532.167969 L 405 495.492188 L 729 495.492188 Z M 261.007812 458.8125 L 224.992188 458.8125 L 224.992188 348.753906 L 189 348.753906 L 189 458.785156 L 116.992188 458.785156 L 116.992188 312.078125 L 260.980469 312.078125 L 260.980469 458.8125 Z M 440.992188 458.8125 L 368.980469 458.8125 L 368.980469 495.492188 L 297 495.492188 L 297 312.078125 L 440.992188 312.078125 Z M 693.007812 458.8125 L 657.019531 458.8125 L 657.019531 348.753906 L 621 348.753906 L 621 458.785156 L 585.007812 458.785156 L 585.007812 348.753906 L 549.019531 348.753906 L 549.019531 458.785156 L 477.007812 458.785156 L 477.007812 312.078125 L 693.007812 312.078125 Z M 693.007812 458.8125 " fill-opacity="1" fill-rule="nonzero"/></svg>