<svg xmlns="http://www.w3.org/2000/svg" xmlns:xlink="http://www.w3.org/1999/xlink" width="1080" zoomAndPan="magnify" viewBox="0 0 810 809.999993" height="1080" preserveAspectRatio="xMidYMid meet" version="1.0"><defs><clipPath id="ad8eadacc5"><path d="M 83 446 L 349 446 L 349 575.253906 L 83 575.253906 Z M 83 446 " clip-rule="nonzero"/></clipPath></defs><g clip-path="url(#ad8eadacc5)"><path fill="#00618a" d="M 83.359375 545.832031 L 104.550781 545.832031 L 104.550781 462.171875 L 137.359375 535.128906 C 141.226562 543.925781 146.53125 547.085938 156.921875 547.085938 C 167.3125 547.085938 172.40625 543.960938 176.28125 535.128906 L 209.09375 462.171875 L 209.09375 545.863281 L 230.289062 545.863281 L 230.289062 462.308594 C 230.289062 454.160156 227.023438 450.214844 220.300781 448.179688 C 204.203125 443.15625 193.402344 447.503906 188.511719 458.371094 L 156.316406 530.375 L 125.132812 458.339844 C 120.449219 447.472656 109.445312 443.125 93.347656 448.148438 C 86.617188 450.1875 83.359375 454.128906 83.359375 462.277344 Z M 247.902344 477.714844 L 269.089844 477.714844 L 269.089844 523.824219 C 268.894531 526.332031 269.894531 532.210938 281.503906 532.390625 C 287.429688 532.484375 327.21875 532.390625 327.589844 532.390625 L 327.589844 477.484375 L 348.824219 477.484375 C 348.917969 477.484375 348.800781 552.351562 348.804688 552.671875 C 348.921875 571.132812 325.894531 575.144531 315.28125 575.457031 L 248.367188 575.457031 L 248.367188 561.195312 L 315.402344 561.191406 C 329.039062 559.746094 327.433594 552.972656 327.433594 550.6875 L 327.433594 545.128906 L 282.390625 545.128906 C 261.433594 544.941406 248.089844 535.789062 247.921875 525.269531 C 247.90625 524.324219 248.375 478.167969 247.910156 477.710938 Z M 247.902344 477.714844 " fill-opacity="1" fill-rule="nonzero"/></g><path fill="#e48e00" d="M 365.160156 545.832031 L 426.089844 545.832031 C 433.21875 545.832031 440.152344 544.339844 445.65625 541.753906 C 454.828125 537.546875 459.3125 531.839844 459.3125 524.367188 L 459.3125 508.878906 C 459.3125 502.765625 454.21875 497.058594 444.234375 493.257812 C 438.9375 491.214844 432.414062 490.128906 426.097656 490.128906 L 400.421875 490.128906 C 391.863281 490.128906 387.785156 487.546875 386.769531 481.84375 C 386.566406 481.164062 386.566406 480.589844 386.566406 479.941406 L 386.566406 470.296875 C 386.566406 469.753906 386.566406 469.207031 386.769531 468.527344 C 387.785156 464.183594 390.03125 462.957031 397.566406 462.246094 C 398.179688 462.246094 398.996094 462.109375 399.609375 462.109375 L 460.132812 462.109375 L 460.132812 447.984375 L 400.628906 447.984375 C 392.066406 447.984375 387.585938 448.527344 383.507812 449.75 C 370.855469 453.691406 365.355469 459.972656 365.355469 470.839844 L 365.355469 483.203125 C 365.355469 492.714844 376.160156 500.867188 394.289062 502.769531 C 396.332031 502.902344 398.367188 503.039062 400.402344 503.039062 L 422.410156 503.039062 C 423.226562 503.039062 424.042969 503.039062 424.652344 503.175781 C 431.375 503.71875 434.234375 504.941406 436.269531 507.386719 C 437.527344 508.640625 437.902344 509.835938 437.902344 511.15625 L 437.902344 523.519531 C 437.902344 525.011719 436.882812 526.917969 434.847656 528.542969 C 433.011719 530.175781 429.957031 531.261719 425.878906 531.535156 C 425.0625 531.535156 424.453125 531.667969 423.640625 531.667969 L 365.152344 531.667969 L 365.152344 545.796875 Z M 591.515625 521.242188 C 591.515625 535.78125 602.3125 543.933594 624.117188 545.5625 C 626.152344 545.71875 628.191406 545.808594 630.230469 545.832031 L 685.457031 545.832031 L 685.457031 531.703125 L 629.824219 531.703125 C 617.394531 531.703125 612.703125 528.578125 612.703125 521.105469 L 612.703125 448.011719 L 591.511719 448.011719 L 591.511719 521.238281 Z M 472.832031 521.980469 L 472.832031 471.609375 C 472.832031 458.8125 481.8125 451.050781 499.578125 448.601562 C 501.476562 448.332031 503.382812 448.195312 505.300781 448.195312 L 545.527344 448.195312 C 547.511719 448.195312 549.484375 448.332031 551.449219 448.601562 C 569.214844 451.050781 578.199219 458.808594 578.199219 471.609375 L 578.199219 521.980469 C 578.199219 532.359375 574.382812 537.917969 565.589844 541.539062 L 586.464844 560.386719 L 561.855469 560.386719 L 544.96875 545.136719 L 527.964844 546.214844 L 505.300781 546.214844 C 501.421875 546.214844 497.335938 545.667969 492.84375 544.445312 C 479.335938 540.769531 472.832031 533.6875 472.832031 521.980469 Z M 495.707031 520.722656 C 495.707031 521.402344 495.910156 522.082031 496.113281 522.902344 C 497.371094 528.757812 502.851562 532.023438 511.191406 532.023438 L 530.445312 532.023438 L 512.761719 516.058594 L 537.371094 516.058594 L 552.761719 529.984375 C 555.601562 528.46875 557.472656 526.148438 558.101562 523.175781 C 558.304688 522.496094 558.304688 521.816406 558.304688 521.132812 L 558.304688 472.839844 C 558.304688 472.296875 558.304688 471.582031 558.101562 470.933594 C 556.84375 465.488281 551.359375 462.355469 543.191406 462.355469 L 511.25 462.355469 C 501.824219 462.355469 495.730469 466.441406 495.730469 472.839844 L 495.730469 520.761719 Z M 495.707031 520.722656 " fill-opacity="1" fill-rule="nonzero"/><path fill="#00618a" d="M 704.089844 424.570312 C 691.0625 424.21875 681.109375 425.429688 672.605469 429.015625 C 670.183594 430.039062 666.332031 430.0625 665.933594 433.09375 C 667.265625 434.484375 667.472656 436.566406 668.527344 438.277344 C 670.558594 441.566406 673.992188 445.972656 677.046875 448.277344 C 680.390625 450.800781 683.832031 453.503906 687.421875 455.691406 C 693.800781 459.582031 700.917969 461.800781 707.054688 465.691406 C 710.671875 467.984375 714.265625 470.875 717.796875 473.46875 C 719.539062 474.75 720.71875 476.742188 722.980469 477.542969 L 722.980469 477.171875 C 721.785156 475.65625 721.480469 473.570312 720.386719 471.992188 L 715.574219 467.175781 C 710.863281 460.894531 704.886719 455.4375 698.53125 450.871094 C 693.464844 447.234375 682.125 442.324219 680.011719 436.421875 L 679.640625 436.054688 C 683.234375 435.644531 687.4375 434.347656 690.757812 433.460938 C 696.328125 431.96875 701.304688 432.351562 707.0625 430.871094 L 714.839844 428.644531 L 714.839844 427.164062 C 711.933594 424.179688 709.859375 420.230469 706.691406 417.53125 C 698.398438 410.464844 689.34375 403.414062 680.023438 397.523438 C 674.851562 394.257812 668.464844 392.140625 662.984375 389.371094 C 661.140625 388.441406 657.898438 387.957031 656.683594 386.40625 C 653.808594 382.738281 652.238281 378.082031 650.019531 373.84375 C 645.371094 364.890625 640.804688 355.109375 636.683594 345.6875 C 633.871094 339.265625 632.035156 332.929688 628.535156 327.164062 C 611.714844 299.511719 593.605469 282.820312 565.5625 266.414062 C 559.59375 262.929688 552.410156 261.546875 544.816406 259.746094 L 532.59375 259.003906 C 530.105469 257.96875 527.515625 254.921875 525.179688 253.445312 C 515.886719 247.570312 492.058594 234.808594 485.175781 251.5625 C 480.832031 262.15625 491.667969 272.492188 495.546875 277.863281 C 498.265625 281.632812 501.753906 285.851562 503.695312 290.089844 C 504.972656 292.875 505.195312 295.664062 506.289062 298.613281 C 508.980469 305.835938 511.324219 313.761719 514.808594 320.46875 C 516.566406 323.859375 518.507812 327.433594 520.734375 330.46875 C 522.101562 332.332031 524.441406 333.152344 524.808594 336.03125 C 522.523438 339.234375 522.390625 344.195312 521.101562 348.253906 C 515.3125 366.511719 517.496094 389.199219 525.917969 402.710938 C 528.503906 406.859375 534.585938 415.753906 542.957031 412.34375 C 550.277344 409.359375 548.609375 400.125 550.738281 391.96875 C 551.207031 390.117188 550.917969 388.765625 551.851562 387.523438 L 551.851562 387.894531 L 558.519531 401.230469 C 563.449219 409.175781 572.214844 417.484375 579.632812 423.09375 C 583.480469 426 586.542969 431.023438 591.488281 432.722656 L 591.488281 432.351562 L 591.117188 432.351562 C 590.152344 430.84375 588.644531 430.226562 587.410156 429.023438 C 584.511719 426.179688 581.285156 422.648438 578.886719 419.390625 C 572.132812 410.226562 566.171875 400.199219 560.738281 389.753906 C 558.144531 384.769531 555.886719 379.269531 553.703125 374.199219 C 552.859375 372.242188 552.871094 369.285156 551.113281 368.269531 C 548.714844 371.988281 545.183594 374.992188 543.332031 379.382812 C 540.367188 386.402344 539.984375 394.957031 538.886719 403.835938 C 538.238281 404.066406 538.523438 403.90625 538.144531 404.203125 C 532.988281 402.960938 531.171875 397.648438 529.257812 393.089844 C 524.40625 381.5625 523.507812 363.011719 527.773438 349.75 C 528.871094 346.320312 533.867188 335.507812 531.847656 332.339844 C 530.882812 329.175781 527.703125 327.3125 525.921875 324.925781 C 523.722656 321.941406 521.515625 318.003906 519.992188 314.554688 C 516.023438 305.570312 514.167969 295.488281 509.992188 286.398438 C 507.996094 282.058594 504.621094 277.667969 501.84375 273.835938 C 498.773438 269.5625 495.332031 266.410156 492.957031 261.269531 C 492.105469 259.433594 490.957031 256.496094 492.214844 254.601562 C 492.335938 254.046875 492.597656 253.566406 493 253.164062 C 493.402344 252.761719 493.882812 252.5 494.4375 252.378906 C 496.585938 250.722656 502.574219 252.925781 504.808594 253.859375 C 510.746094 256.328125 515.707031 258.679688 520.742188 262.011719 C 523.160156 263.582031 525.601562 266.710938 528.519531 267.570312 L 531.847656 267.570312 C 537.0625 268.769531 542.902344 267.949219 547.773438 269.425781 C 556.386719 272.042969 564.101562 276.117188 571.109375 280.539062 C 592.464844 294.019531 609.917969 313.210938 621.859375 336.136719 C 623.78125 339.820312 624.613281 343.34375 626.304688 347.25 C 629.71875 355.101562 634.019531 363.246094 637.417969 370.957031 C 640.808594 378.652344 644.109375 386.410156 648.902344 392.8125 C 651.421875 396.171875 661.152344 397.980469 665.570312 399.847656 C 668.671875 401.15625 673.746094 402.523438 676.683594 404.292969 C 682.289062 407.675781 687.722656 411.707031 692.984375 415.414062 C 695.613281 417.265625 703.695312 421.328125 704.097656 424.671875 Z M 704.089844 424.570312 " fill-opacity="1" fill-rule="nonzero"/><path fill="#00618a" d="M 538.527344 283.433594 C 535.808594 283.382812 533.890625 283.730469 531.855469 284.175781 L 531.855469 284.546875 L 532.226562 284.546875 C 533.523438 287.210938 535.808594 288.921875 537.410156 291.214844 L 541.117188 298.992188 L 541.488281 298.621094 C 543.78125 297.003906 544.832031 294.417969 544.816406 290.46875 C 543.898438 289.503906 543.761719 288.289062 542.964844 287.132812 C 541.90625 285.59375 539.824219 284.722656 538.519531 283.429688 Z M 538.527344 283.433594 " fill-opacity="1" fill-rule="evenodd"/><path fill="#e48e00" d="M 695.421875 531.300781 C 695.421875 540.632812 702.792969 546.917969 711.039062 546.917969 C 719.28125 546.917969 726.65625 540.632812 726.65625 531.300781 C 726.65625 521.972656 719.28125 515.683594 711.039062 515.683594 C 702.792969 515.683594 695.421875 521.972656 695.421875 531.300781 Z M 723.15625 531.300781 C 723.15625 538.382812 717.742188 543.671875 711.03125 543.671875 C 704.246094 543.671875 698.90625 538.382812 698.90625 531.300781 C 698.90625 524.222656 704.238281 518.933594 711.03125 518.933594 C 717.738281 518.933594 723.15625 524.222656 723.15625 531.300781 Z M 715.238281 540.214844 L 718.734375 540.214844 L 713.617188 532.386719 C 716.363281 532.097656 718.445312 530.761719 718.445312 527.511719 C 718.445312 523.890625 716.152344 522.394531 711.742188 522.394531 L 704.785156 522.394531 L 704.785156 540.21875 L 707.785156 540.21875 L 707.785156 532.515625 L 710.574219 532.515625 L 715.238281 540.21875 Z M 707.785156 530.007812 L 707.785156 524.886719 L 711.238281 524.886719 C 713.027344 524.886719 715.195312 525.21875 715.195312 527.304688 C 715.195312 529.804688 713.238281 530.015625 710.988281 530.015625 L 707.785156 530.015625 Z M 707.785156 530.007812 " fill-opacity="1" fill-rule="evenodd"/></svg>