<svg xmlns="http://www.w3.org/2000/svg" xmlns:xlink="http://www.w3.org/1999/xlink" width="1080" zoomAndPan="magnify" viewBox="0 0 810 809.999993" height="1080" preserveAspectRatio="xMidYMid meet" version="1.0"><defs><clipPath id="f24ee9e0e7"><path d="M 81 144 L 349 144 L 349 737.839844 L 81 737.839844 Z M 81 144 " clip-rule="nonzero"/></clipPath><clipPath id="6b9591fbf6"><path d="M 330 435 L 602 435 L 602 737.839844 L 330 737.839844 Z M 330 435 " clip-rule="nonzero"/></clipPath></defs><path fill="#ef0a1b" d="M 215.488281 235.347656 C 213.902344 235.347656 212.421875 234.949219 211.050781 234.15625 L 210.179688 233.652344 L 85.605469 161.464844 C 85.273438 161.273438 84.953125 161.0625 84.648438 160.828125 C 84.34375 160.59375 84.058594 160.339844 83.785156 160.070312 C 83.515625 159.796875 83.261719 159.511719 83.027344 159.207031 C 82.792969 158.902344 82.582031 158.585938 82.386719 158.253906 C 82.195312 157.921875 82.027344 157.578125 81.878906 157.226562 C 81.730469 156.871094 81.605469 156.511719 81.503906 156.140625 C 81.402344 155.769531 81.328125 155.394531 81.273438 155.015625 C 81.222656 154.636719 81.195312 154.253906 81.191406 153.871094 C 81.1875 153.488281 81.210938 153.105469 81.257812 152.722656 C 81.304688 152.34375 81.378906 151.96875 81.472656 151.597656 C 81.570312 151.226562 81.6875 150.863281 81.832031 150.507812 C 81.976562 150.152344 82.140625 149.804688 82.328125 149.472656 C 82.515625 149.136719 82.726562 148.816406 82.957031 148.507812 C 83.1875 148.203125 83.433594 147.910156 83.703125 147.636719 C 83.96875 147.363281 84.253906 147.105469 84.554688 146.867188 C 84.855469 146.628906 85.171875 146.414062 85.5 146.214844 L 207.140625 73.519531 C 207.828125 73.109375 208.558594 72.796875 209.328125 72.585938 C 210.101562 72.371094 210.886719 72.265625 211.6875 72.265625 C 212.488281 72.265625 213.277344 72.375 214.046875 72.585938 C 214.820312 72.800781 215.550781 73.113281 216.234375 73.527344 L 340.195312 147.796875 C 340.519531 147.996094 340.835938 148.210938 341.132812 148.449219 C 341.433594 148.683594 341.714844 148.941406 341.984375 149.214844 C 342.25 149.488281 342.496094 149.777344 342.726562 150.082031 C 342.953125 150.386719 343.164062 150.707031 343.351562 151.039062 C 343.539062 151.371094 343.703125 151.710938 343.847656 152.066406 C 343.992188 152.421875 344.109375 152.78125 344.207031 153.152344 C 344.304688 153.519531 344.375 153.894531 344.425781 154.273438 C 344.472656 154.652344 344.496094 155.03125 344.496094 155.414062 C 344.492188 155.792969 344.46875 156.175781 344.417969 156.550781 C 344.367188 156.929688 344.292969 157.304688 344.195312 157.671875 C 344.097656 158.042969 343.972656 158.402344 343.828125 158.753906 C 343.683594 159.109375 343.515625 159.449219 343.328125 159.78125 C 343.136719 160.113281 342.925781 160.429688 342.695312 160.734375 C 342.464844 161.039062 342.214844 161.328125 341.949219 161.597656 C 341.679688 161.871094 341.394531 162.125 341.097656 162.359375 C 340.796875 162.59375 340.480469 162.808594 340.152344 163.003906 L 219.996094 234.113281 C 218.605469 234.9375 217.101562 235.347656 215.484375 235.347656 Z M 107.492188 153.691406 L 215.4375 216.242188 L 318.34375 155.339844 L 211.675781 91.429688 L 107.496094 153.691406 Z M 107.492188 153.691406 " fill-opacity="1" fill-rule="nonzero"/><g clip-path="url(#f24ee9e0e7)"><path fill="#ef0a1b" d="M 339.183594 737.839844 C 337.65625 737.839844 336.222656 737.46875 334.886719 736.726562 L 85.746094 598.484375 C 85.054688 598.101562 84.429688 597.632812 83.863281 597.082031 C 83.296875 596.53125 82.816406 595.914062 82.414062 595.234375 C 82.011719 594.554688 81.710938 593.835938 81.503906 593.074219 C 81.292969 592.3125 81.191406 591.535156 81.191406 590.746094 L 81.191406 153.808594 C 81.191406 153.03125 81.292969 152.265625 81.492188 151.515625 C 81.695312 150.765625 81.988281 150.054688 82.378906 149.378906 C 82.769531 148.707031 83.238281 148.097656 83.789062 147.546875 C 84.339844 146.996094 84.949219 146.527344 85.625 146.140625 C 86.296875 145.753906 87.011719 145.457031 87.761719 145.257812 C 88.515625 145.058594 89.277344 144.957031 90.054688 144.960938 C 90.832031 144.960938 91.597656 145.0625 92.347656 145.265625 C 93.101562 145.46875 93.8125 145.761719 94.484375 146.152344 L 219.054688 218.335938 C 219.726562 218.726562 220.335938 219.195312 220.882812 219.742188 C 221.429688 220.292969 221.898438 220.902344 222.285156 221.574219 C 222.671875 222.246094 222.964844 222.957031 223.167969 223.707031 C 223.367188 224.457031 223.46875 225.21875 223.46875 225.992188 L 223.46875 512.273438 L 343.640625 582.246094 C 344.308594 582.636719 344.917969 583.105469 345.464844 583.652344 C 346.007812 584.203125 346.476562 584.8125 346.859375 585.484375 C 347.246094 586.15625 347.539062 586.863281 347.738281 587.609375 C 347.9375 588.359375 348.039062 589.121094 348.039062 589.894531 L 348.039062 728.988281 C 348.039062 729.570312 347.980469 730.144531 347.867188 730.714844 C 347.753906 731.285156 347.585938 731.839844 347.363281 732.375 C 347.140625 732.910156 346.871094 733.421875 346.546875 733.90625 C 346.222656 734.386719 345.855469 734.835938 345.445312 735.246094 C 345.035156 735.65625 344.585938 736.023438 344.105469 736.347656 C 343.621094 736.667969 343.109375 736.941406 342.574219 737.164062 C 342.035156 737.386719 341.484375 737.554688 340.914062 737.667969 C 340.34375 737.78125 339.765625 737.839844 339.183594 737.839844 Z M 98.898438 585.539062 L 330.332031 713.953125 L 330.332031 594.980469 L 210.15625 525.003906 C 209.488281 524.617188 208.882812 524.148438 208.335938 523.597656 C 207.789062 523.050781 207.324219 522.441406 206.9375 521.769531 C 206.550781 521.097656 206.257812 520.390625 206.058594 519.640625 C 205.859375 518.894531 205.761719 518.132812 205.761719 517.359375 L 205.761719 231.089844 L 98.898438 169.167969 Z M 98.898438 585.539062 " fill-opacity="1" fill-rule="nonzero"/></g><path fill="#ef0a1b" d="M 214.613281 526.207031 C 214.03125 526.207031 213.457031 526.152344 212.886719 526.039062 C 212.316406 525.925781 211.761719 525.757812 211.226562 525.535156 C 210.6875 525.3125 210.179688 525.039062 209.695312 524.71875 C 209.210938 524.394531 208.765625 524.027344 208.351562 523.617188 C 207.941406 523.207031 207.574219 522.757812 207.253906 522.273438 C 206.929688 521.792969 206.65625 521.28125 206.433594 520.746094 C 206.210938 520.207031 206.042969 519.65625 205.929688 519.085938 C 205.816406 518.515625 205.761719 517.941406 205.761719 517.359375 L 205.761719 225.992188 C 205.761719 225.445312 205.8125 224.898438 205.914062 224.359375 C 206.015625 223.820312 206.164062 223.292969 206.363281 222.78125 C 206.5625 222.269531 206.808594 221.78125 207.097656 221.316406 C 207.390625 220.847656 207.722656 220.414062 208.09375 220.007812 C 208.464844 219.605469 208.871094 219.238281 209.308594 218.90625 C 209.75 218.578125 210.21875 218.292969 210.710938 218.050781 C 211.203125 217.808594 211.714844 217.613281 212.246094 217.46875 C 212.773438 217.320312 213.3125 217.222656 213.859375 217.175781 L 331.132812 147.773438 C 331.464844 147.578125 331.808594 147.402344 332.164062 147.25 C 332.519531 147.097656 332.886719 146.972656 333.257812 146.867188 C 333.628906 146.761719 334.007812 146.683594 334.390625 146.628906 C 334.773438 146.574219 335.15625 146.542969 335.542969 146.539062 C 335.929688 146.535156 336.316406 146.554688 336.699219 146.601562 C 337.082031 146.648438 337.460938 146.71875 337.835938 146.816406 C 338.210938 146.910156 338.578125 147.03125 338.9375 147.175781 C 339.296875 147.316406 339.644531 147.484375 339.980469 147.675781 C 340.316406 147.863281 340.640625 148.074219 340.949219 148.304688 C 341.261719 148.535156 341.554688 148.789062 341.828125 149.058594 C 342.105469 149.328125 342.363281 149.613281 342.601562 149.917969 C 342.84375 150.222656 343.058594 150.539062 343.257812 150.871094 C 343.453125 151.203125 343.628906 151.546875 343.78125 151.902344 C 343.933594 152.257812 344.0625 152.621094 344.167969 152.996094 C 344.273438 153.367188 344.351562 153.742188 344.40625 154.125 C 344.460938 154.507812 344.492188 154.894531 344.496094 155.28125 L 348.039062 443.011719 C 348.046875 443.789062 347.957031 444.550781 347.765625 445.304688 C 347.574219 446.054688 347.289062 446.769531 346.910156 447.445312 C 346.53125 448.121094 346.070312 448.738281 345.53125 449.292969 C 344.988281 449.851562 344.386719 450.324219 343.71875 450.722656 L 219.148438 524.960938 C 217.753906 525.792969 216.242188 526.207031 214.613281 526.207031 Z M 223.46875 232.058594 L 223.46875 501.777344 L 330.269531 438.128906 L 326.976562 170.796875 Z M 223.46875 232.058594 " fill-opacity="1" fill-rule="nonzero"/><g clip-path="url(#6b9591fbf6)"><path fill="#ef0a1b" d="M 339.183594 737.839844 C 338.605469 737.839844 338.027344 737.78125 337.457031 737.667969 C 336.886719 737.554688 336.332031 737.386719 335.796875 737.164062 C 335.257812 736.941406 334.75 736.667969 334.265625 736.347656 C 333.78125 736.023438 333.335938 735.65625 332.925781 735.246094 C 332.511719 734.835938 332.144531 734.386719 331.824219 733.90625 C 331.5 733.421875 331.226562 732.910156 331.003906 732.375 C 330.78125 731.839844 330.613281 731.285156 330.5 730.714844 C 330.386719 730.144531 330.332031 729.570312 330.332031 728.988281 L 330.332031 589.894531 C 330.332031 589.113281 330.433594 588.347656 330.636719 587.59375 C 330.835938 586.84375 331.132812 586.128906 331.527344 585.453125 C 331.917969 584.78125 332.390625 584.167969 332.941406 583.617188 C 333.496094 583.070312 334.109375 582.601562 334.785156 582.214844 L 588.347656 437.144531 C 588.683594 436.953125 589.03125 436.785156 589.386719 436.636719 C 589.746094 436.492188 590.109375 436.371094 590.484375 436.269531 C 590.855469 436.171875 591.234375 436.097656 591.617188 436.046875 C 592 436 592.386719 435.976562 592.773438 435.976562 C 593.160156 435.976562 593.542969 436.003906 593.925781 436.054688 C 594.308594 436.105469 594.6875 436.183594 595.058594 436.285156 C 595.433594 436.382812 595.796875 436.507812 596.152344 436.65625 C 596.507812 436.804688 596.855469 436.976562 597.1875 437.171875 C 597.523438 437.363281 597.84375 437.578125 598.148438 437.8125 C 598.453125 438.050781 598.746094 438.304688 599.015625 438.578125 C 599.289062 438.851562 599.542969 439.140625 599.777344 439.445312 C 600.011719 439.753906 600.226562 440.074219 600.417969 440.410156 C 600.613281 440.742188 600.78125 441.089844 600.929688 441.445312 C 601.078125 441.800781 601.199219 442.167969 601.300781 442.539062 C 601.402344 442.914062 601.476562 443.289062 601.527344 443.671875 C 601.578125 444.054688 601.601562 444.441406 601.601562 444.824219 L 601.601562 589.894531 C 601.601562 590.6875 601.496094 591.464844 601.289062 592.230469 C 601.078125 592.996094 600.769531 593.71875 600.367188 594.402344 C 599.960938 595.082031 599.476562 595.699219 598.90625 596.253906 C 598.335938 596.804688 597.703125 597.269531 597.007812 597.652344 L 343.445312 736.746094 C 342.117188 737.472656 340.699219 737.839844 339.183594 737.839844 Z M 348.039062 595.023438 L 348.039062 714.039062 L 583.894531 584.65625 L 583.894531 460.085938 Z M 348.039062 595.023438 " fill-opacity="1" fill-rule="nonzero"/></g><path fill="#ef0a1b" d="M 339.183594 598.742188 C 337.589844 598.742188 336.105469 598.34375 334.730469 597.539062 L 210.15625 525.003906 C 209.828125 524.8125 209.507812 524.597656 209.207031 524.363281 C 208.902344 524.128906 208.613281 523.878906 208.34375 523.605469 C 208.074219 523.335938 207.820312 523.046875 207.589844 522.742188 C 207.355469 522.4375 207.140625 522.121094 206.949219 521.789062 C 206.757812 521.457031 206.589844 521.113281 206.441406 520.757812 C 206.292969 520.40625 206.167969 520.042969 206.070312 519.671875 C 205.96875 519.304688 205.894531 518.929688 205.839844 518.550781 C 205.789062 518.167969 205.761719 517.789062 205.761719 517.402344 C 205.757812 517.019531 205.78125 516.640625 205.828125 516.257812 C 205.878906 515.878906 205.949219 515.503906 206.046875 515.132812 C 206.144531 514.761719 206.261719 514.398438 206.40625 514.042969 C 206.550781 513.6875 206.71875 513.34375 206.90625 513.007812 C 207.09375 512.675781 207.304688 512.355469 207.535156 512.046875 C 207.765625 511.742188 208.011719 511.449219 208.28125 511.175781 C 208.550781 510.902344 208.832031 510.644531 209.132812 510.410156 C 209.4375 510.171875 209.75 509.953125 210.082031 509.757812 L 334.652344 435.519531 C 334.742188 435.464844 334.839844 435.410156 334.9375 435.359375 L 461.289062 366.238281 C 461.945312 365.878906 462.636719 365.605469 463.363281 365.421875 C 464.089844 365.238281 464.824219 365.148438 465.574219 365.152344 C 466.320312 365.152344 467.058594 365.25 467.78125 365.4375 C 468.507812 365.628906 469.195312 365.90625 469.847656 366.269531 L 597.058594 437.09375 C 597.742188 437.476562 598.367188 437.941406 598.925781 438.488281 C 599.488281 439.035156 599.96875 439.644531 600.371094 440.320312 C 600.769531 440.996094 601.074219 441.710938 601.28125 442.464844 C 601.492188 443.21875 601.597656 443.988281 601.601562 444.773438 C 601.605469 445.558594 601.507812 446.328125 601.308594 447.085938 C 601.109375 447.84375 600.8125 448.5625 600.421875 449.242188 C 600.03125 449.921875 599.554688 450.539062 599 451.089844 C 598.445312 451.644531 597.828125 452.117188 597.148438 452.503906 L 343.582031 597.574219 C 342.222656 598.351562 340.753906 598.742188 339.183594 598.742188 Z M 232.050781 517.269531 L 339.222656 579.675781 L 574.742188 444.929688 L 465.5 384.109375 L 343.578125 450.804688 Z M 232.050781 517.269531 " fill-opacity="1" fill-rule="nonzero"/><path fill="#ef0a1b" d="M 592.746094 453.675781 C 591.214844 453.675781 589.777344 453.300781 588.4375 452.554688 L 461.230469 381.730469 C 460.539062 381.347656 459.910156 380.878906 459.347656 380.324219 C 458.78125 379.773438 458.300781 379.152344 457.898438 378.472656 C 457.5 377.789062 457.195312 377.066406 456.992188 376.304688 C 456.785156 375.542969 456.683594 374.765625 456.683594 373.972656 L 457.113281 226.472656 C 457.113281 226.085938 457.140625 225.703125 457.191406 225.320312 C 457.242188 224.941406 457.320312 224.5625 457.417969 224.191406 C 457.519531 223.820312 457.644531 223.457031 457.792969 223.097656 C 457.941406 222.742188 458.109375 222.398438 458.304688 222.066406 C 458.496094 221.730469 458.710938 221.414062 458.945312 221.105469 C 459.179688 220.800781 459.433594 220.511719 459.707031 220.238281 C 459.980469 219.96875 460.269531 219.714844 460.574219 219.480469 C 460.878906 219.246094 461.199219 219.03125 461.535156 218.839844 C 461.867188 218.644531 462.210938 218.476562 462.570312 218.328125 C 462.925781 218.179688 463.289062 218.054688 463.660156 217.953125 C 464.03125 217.855469 464.410156 217.777344 464.792969 217.726562 C 465.175781 217.675781 465.558594 217.648438 465.945312 217.648438 C 466.328125 217.648438 466.714844 217.671875 467.09375 217.722656 C 467.476562 217.769531 467.855469 217.84375 468.226562 217.941406 C 468.601562 218.039062 468.964844 218.164062 469.320312 218.308594 C 469.679688 218.457031 470.023438 218.625 470.359375 218.816406 L 597.136719 291.226562 C 597.816406 291.613281 598.433594 292.082031 598.984375 292.628906 C 599.539062 293.179688 600.011719 293.792969 600.40625 294.46875 C 600.796875 295.140625 601.09375 295.855469 601.296875 296.609375 C 601.5 297.363281 601.601562 298.128906 601.601562 298.910156 L 601.601562 444.828125 C 601.601562 445.40625 601.542969 445.984375 601.429688 446.554688 C 601.316406 447.125 601.148438 447.675781 600.925781 448.214844 C 600.703125 448.75 600.433594 449.261719 600.109375 449.742188 C 599.785156 450.226562 599.417969 450.671875 599.007812 451.085938 C 598.597656 451.496094 598.148438 451.863281 597.667969 452.183594 C 597.183594 452.507812 596.671875 452.78125 596.136719 453.003906 C 595.597656 453.226562 595.042969 453.394531 594.476562 453.507812 C 593.90625 453.621094 593.328125 453.675781 592.746094 453.675781 Z M 474.40625 368.808594 L 583.894531 429.765625 L 583.894531 304.042969 L 474.777344 241.722656 Z M 474.40625 368.808594 " fill-opacity="1" fill-rule="nonzero"/><path fill="#ef0a1b" d="M 592.746094 453.675781 C 592.164062 453.675781 591.589844 453.617188 591.019531 453.503906 C 590.449219 453.390625 589.894531 453.222656 589.359375 453 C 588.820312 452.777344 588.3125 452.507812 587.828125 452.183594 C 587.34375 451.859375 586.898438 451.492188 586.488281 451.082031 C 586.074219 450.671875 585.707031 450.226562 585.386719 449.742188 C 585.0625 449.257812 584.789062 448.75 584.566406 448.210938 C 584.34375 447.675781 584.175781 447.121094 584.0625 446.550781 C 583.949219 445.980469 583.894531 445.40625 583.894531 444.824219 L 583.894531 298.910156 C 583.894531 298.128906 583.996094 297.359375 584.199219 296.605469 C 584.402344 295.851562 584.699219 295.136719 585.09375 294.460938 C 585.484375 293.785156 585.960938 293.175781 586.515625 292.625 C 587.070312 292.074219 587.6875 291.605469 588.367188 291.21875 L 715.574219 218.808594 C 715.910156 218.617188 716.253906 218.449219 716.613281 218.304688 C 716.96875 218.160156 717.335938 218.039062 717.707031 217.941406 C 718.082031 217.84375 718.460938 217.769531 718.84375 217.71875 C 719.226562 217.671875 719.609375 217.648438 719.996094 217.648438 C 720.378906 217.652344 720.765625 217.679688 721.148438 217.730469 C 721.527344 217.78125 721.90625 217.859375 722.277344 217.960938 C 722.652344 218.0625 723.015625 218.1875 723.371094 218.335938 C 723.726562 218.484375 724.070312 218.65625 724.40625 218.847656 C 724.738281 219.042969 725.058594 219.257812 725.363281 219.492188 C 725.667969 219.726562 725.957031 219.984375 726.230469 220.253906 C 726.503906 220.527344 726.753906 220.820312 726.988281 221.125 C 727.222656 221.429688 727.4375 221.75 727.628906 222.085938 C 727.820312 222.421875 727.992188 222.765625 728.140625 223.121094 C 728.285156 223.476562 728.410156 223.84375 728.507812 224.214844 C 728.609375 224.585938 728.683594 224.964844 728.734375 225.347656 C 728.785156 225.730469 728.808594 226.113281 728.808594 226.5 L 728.808594 374 C 728.808594 374.789062 728.707031 375.5625 728.5 376.324219 C 728.292969 377.082031 727.988281 377.804688 727.589844 378.484375 C 727.191406 379.164062 726.707031 379.777344 726.144531 380.328125 C 725.578125 380.878906 724.953125 381.347656 724.265625 381.730469 L 597.054688 452.558594 C 595.714844 453.300781 594.28125 453.675781 592.746094 453.675781 Z M 601.601562 304.050781 L 601.601562 429.765625 L 711.101562 368.800781 L 711.101562 241.722656 Z M 601.601562 304.050781 " fill-opacity="1" fill-rule="nonzero"/><path fill="#ef0a1b" d="M 592.746094 307.757812 C 591.179688 307.757812 589.714844 307.367188 588.355469 306.589844 L 461.574219 234.179688 C 460.894531 233.792969 460.277344 233.324219 459.722656 232.769531 C 459.167969 232.21875 458.695312 231.601562 458.300781 230.925781 C 457.910156 230.246094 457.613281 229.527344 457.410156 228.773438 C 457.210938 228.015625 457.113281 227.246094 457.113281 226.464844 C 457.117188 225.679688 457.222656 224.910156 457.429688 224.15625 C 457.636719 223.402344 457.941406 222.6875 458.335938 222.011719 C 458.734375 221.335938 459.210938 220.726562 459.773438 220.175781 C 460.332031 219.628906 460.953125 219.164062 461.636719 218.78125 L 588.414062 147.671875 C 589.074219 147.300781 589.773438 147.019531 590.503906 146.828125 C 591.238281 146.636719 591.984375 146.539062 592.742188 146.539062 C 593.5 146.539062 594.242188 146.632812 594.976562 146.824219 C 595.710938 147.015625 596.40625 147.296875 597.070312 147.664062 L 724.277344 218.773438 C 724.960938 219.15625 725.585938 219.621094 726.144531 220.171875 C 726.707031 220.71875 727.1875 221.332031 727.585938 222.007812 C 727.980469 222.679688 728.285156 223.398438 728.492188 224.152344 C 728.699219 224.910156 728.804688 225.679688 728.808594 226.464844 C 728.8125 227.246094 728.714844 228.019531 728.511719 228.777344 C 728.308594 229.535156 728.011719 230.25 727.617188 230.929688 C 727.226562 231.609375 726.75 232.222656 726.195312 232.777344 C 725.636719 233.328125 725.019531 233.800781 724.335938 234.1875 L 597.128906 306.597656 C 595.769531 307.371094 594.308594 307.757812 592.746094 307.757812 Z M 483.9375 226.566406 L 592.753906 288.71875 L 701.941406 226.566406 L 592.753906 165.53125 Z M 483.9375 226.566406 " fill-opacity="1" fill-rule="nonzero"/></svg>