<svg xmlns="http://www.w3.org/2000/svg" xmlns:xlink="http://www.w3.org/1999/xlink" width="1080" zoomAndPan="magnify" viewBox="0 0 810 809.999993" height="1080" preserveAspectRatio="xMidYMid meet" version="1.0"><defs><clipPath id="25793284d5"><path d="M 83 42 L 728 42 L 728 769.5 L 83 769.5 Z M 83 42 " clip-rule="nonzero"/></clipPath></defs><g clip-path="url(#25793284d5)"><path fill="#539e43" d="M 405.429688 769.398438 C 395.40625 769.398438 386.066406 766.730469 377.40625 762.070312 L 288.660156 709.320312 C 275.316406 701.992188 281.988281 699.320312 285.992188 697.984375 C 304.007812 691.964844 307.34375 690.628906 326.027344 679.949219 C 328.03125 678.613281 330.699219 679.292969 332.699219 680.628906 L 400.746094 721.335938 C 403.414062 722.671875 406.761719 722.671875 408.777344 721.335938 L 674.980469 567.148438 C 677.648438 565.8125 678.984375 563.144531 678.984375 559.792969 L 678.984375 252.046875 C 678.984375 248.710938 677.648438 246.039062 674.980469 244.707031 L 408.777344 91.164062 C 406.109375 89.828125 402.757812 89.828125 400.746094 91.164062 L 134.539062 244.707031 C 131.863281 246.039062 130.527344 249.378906 130.527344 252.046875 L 130.527344 559.796875 C 130.527344 562.464844 131.863281 565.816406 134.53125 567.152344 L 207.257812 609.191406 C 246.628906 629.21875 271.3125 605.867188 271.3125 582.492188 L 271.3125 278.75 C 271.3125 274.746094 274.648438 270.742188 279.320312 270.742188 L 313.351562 270.742188 C 317.355469 270.742188 321.355469 274.078125 321.355469 278.753906 L 321.355469 582.492188 C 321.355469 635.242188 292.664062 665.949219 242.621094 665.949219 C 227.277344 665.949219 215.265625 665.949219 181.238281 649.246094 L 111.175781 609.195312 C 93.828125 599.195312 83.152344 580.503906 83.152344 560.476562 L 83.152344 252.730469 C 83.152344 232.691406 93.828125 214 111.175781 203.988281 L 377.40625 49.78125 C 394.074219 40.4375 416.785156 40.4375 433.449219 49.78125 L 699.679688 203.988281 C 717.027344 214 727.703125 232.691406 727.703125 252.71875 L 727.703125 560.46875 C 727.703125 580.492188 717.027344 599.183594 699.679688 609.183594 L 433.449219 763.398438 C 424.789062 767.402344 414.769531 769.394531 405.429688 769.394531 Z M 487.507812 557.804688 C 370.734375 557.804688 346.714844 504.375 346.714844 458.980469 C 346.714844 454.976562 350.039062 450.972656 354.71875 450.972656 L 389.414062 450.972656 C 393.417969 450.972656 396.742188 453.640625 396.742188 457.648438 C 402.078125 493.039062 417.4375 510.394531 488.164062 510.394531 C 544.207031 510.394531 568.226562 497.699219 568.226562 467.671875 C 568.226562 450.316406 561.554688 437.621094 474.164062 428.957031 C 401.425781 421.601562 356.054688 405.578125 356.054688 347.515625 C 356.054688 293.4375 401.425781 261.394531 477.488281 261.394531 C 562.890625 261.394531 604.9375 290.765625 610.273438 354.847656 C 610.273438 356.863281 609.59375 358.851562 608.261719 360.867188 C 606.925781 362.203125 604.9375 363.539062 602.921875 363.539062 L 568.226562 363.539062 C 564.902344 363.539062 561.554688 360.867188 560.902344 357.515625 C 552.894531 320.816406 532.199219 308.800781 477.488281 308.800781 C 416.105469 308.800781 408.777344 330.160156 408.777344 346.179688 C 408.777344 365.527344 417.4375 371.546875 500.171875 382.226562 C 582.25 392.910156 620.949219 408.25 620.949219 465.65625 C 620.269531 524.402344 572.230469 557.804688 487.507812 557.804688 Z M 487.507812 557.804688 " fill-opacity="1" fill-rule="nonzero"/></g></svg>