<svg xmlns="http://www.w3.org/2000/svg" xmlns:xlink="http://www.w3.org/1999/xlink" width="1080" zoomAndPan="magnify" viewBox="0 0 810 809.999993" height="1080" preserveAspectRatio="xMidYMid meet" version="1.0"><defs><clipPath id="06e619081f"><path d="M 85 67.058594 L 728 67.058594 L 728 738 L 85 738 Z M 85 67.058594 " clip-rule="nonzero"/></clipPath></defs><path fill="#ffffff" d="M 684.429688 483.675781 C 684.429688 483.710938 684.410156 483.730469 684.371094 483.730469 C 684.335938 483.730469 684.316406 483.710938 684.316406 483.675781 C 684.316406 483.636719 684.335938 483.621094 684.371094 483.621094 C 684.410156 483.621094 684.429688 483.636719 684.429688 483.675781 Z M 684.429688 483.675781 " fill-opacity="1" fill-rule="nonzero"/><path fill="#32648d" d="M 601.648438 478.367188 L 601.703125 478.425781 L 601.703125 478.453125 L 601.621094 478.480469 C 597.570312 479.960938 594.21875 480.574219 591.398438 481.832031 C 588.519531 482.976562 586.203125 485.070312 584.835938 487.753906 L 584.804688 487.808594 C 583.074219 491.019531 581.566406 496.71875 582.011719 506.410156 C 583.160156 507.246094 584.554688 507.890625 585.980469 508.335938 L 586.089844 508.363281 C 590.8125 509.816406 598.714844 510.765625 607.539062 510.625 C 625.136719 510.429688 646.808594 506.269531 658.316406 500.851562 C 668.230469 496.132812 676.71875 490.433594 684.289062 483.675781 C 645.859375 491.71875 624.15625 489.566406 610.835938 484.011719 C 607.371094 482.503906 604.328125 480.628906 601.648438 478.367188 Z M 601.648438 478.367188 " fill-opacity="1" fill-rule="nonzero"/><path fill="#32648d" d="M 562.238281 182.992188 L 562.40625 183.242188 L 562.601562 183.46875 Z M 562.238281 182.992188 " fill-opacity="1" fill-rule="nonzero"/><path fill="#32648d" d="M 415.25 606.058594 C 415.222656 605.359375 415.25 604.636719 415.222656 603.9375 C 415.222656 603.65625 415.195312 603.460938 415.195312 603.183594 Z M 415.25 606.058594 " fill-opacity="1" fill-rule="nonzero"/><path fill="#32648d" d="M 385.785156 482.808594 C 384.164062 482 382.265625 481.414062 380.226562 481.132812 L 380.144531 481.132812 L 380.144531 481.078125 L 379.558594 481.078125 C 378.105469 481.21875 375.980469 481.71875 371.847656 486.328125 C 362.242188 497.21875 358.890625 504.0625 350.957031 510.457031 C 343.027344 516.828125 332.746094 520.234375 312.191406 524.507812 C 305.683594 525.847656 301.941406 527.328125 299.484375 528.527344 C 300.292969 529.199219 300.210938 529.367188 301.410156 530.007812 C 304.429688 531.683594 308.28125 533.164062 311.410156 533.976562 C 320.234375 536.210938 334.757812 538.808594 349.894531 536.210938 C 365.035156 533.582031 380.785156 526.238281 394.21875 507.164062 C 396.539062 503.867188 396.789062 499.007812 394.890625 493.785156 C 392.992188 488.5625 388.746094 484.066406 385.785156 482.808594 Z M 385.785156 482.808594 " fill-opacity="1" fill-rule="nonzero"/><path fill="#32648d" d="M 498.5625 109.007812 L 496.96875 109.316406 C 497.5 109.203125 498.085938 109.148438 498.617188 109.035156 C 498.589844 109.035156 498.589844 109.007812 498.5625 109.007812 Z M 498.5625 109.007812 " fill-opacity="1" fill-rule="nonzero"/><path fill="#32648d" d="M 576.261719 259.769531 C 557.519531 260.019531 547.019531 264.90625 541.488281 271.304688 C 533.667969 280.378906 532.941406 296.300781 537.800781 315.90625 C 542.632812 335.539062 552.605469 357.492188 561.988281 375.730469 C 566.679688 384.863281 571.234375 393.074219 574.890625 399.75 C 578.578125 406.453125 581.285156 411.199219 582.933594 415.25 C 584.441406 418.992188 586.148438 422.289062 587.851562 425.359375 C 595.113281 409.859375 596.398438 394.636719 595.671875 378.773438 C 594.722656 359.140625 590.195312 339.058594 590.867188 318.726562 C 591.621094 294.960938 596.257812 279.488281 596.648438 261.109375 C 590.53125 260.273438 583.4375 259.769531 576.261719 259.769531 Z M 579.722656 273.902344 L 579.695312 274.125 C 579.695312 274.207031 579.695312 274.292969 579.695312 274.402344 C 579.695312 275.6875 579.332031 276.917969 578.691406 277.921875 L 578.71875 277.894531 C 577.851562 279.488281 576.847656 280.882812 575.671875 282.085938 C 572.9375 285.128906 569.277344 287.25 565.144531 287.976562 L 565.03125 288.003906 C 564.445312 288.089844 563.777344 288.117188 563.078125 288.117188 C 559.558594 288.117188 556.320312 287 553.664062 285.101562 L 553.722656 285.128906 C 552.351562 284.179688 551.152344 283.089844 550.175781 281.859375 L 550.144531 281.832031 C 549.28125 280.882812 548.667969 279.65625 548.414062 278.34375 L 548.414062 278.285156 C 548.414062 278.144531 548.386719 278.007812 548.386719 277.867188 C 548.386719 276.667969 548.832031 275.550781 549.585938 274.710938 C 550.480469 273.679688 551.542969 272.839844 552.773438 272.226562 L 552.828125 272.199219 C 555.480469 270.6875 559.054688 269.574219 563.105469 268.957031 C 564.613281 268.734375 566.121094 268.621094 567.519531 268.59375 L 567.519531 268.679688 L 568.886719 268.679688 C 570.703125 268.734375 572.378906 268.929688 573.859375 269.292969 C 575.339844 269.628906 576.621094 270.132812 577.65625 270.828125 C 578.691406 271.527344 579.472656 272.589844 579.722656 273.902344 Z M 579.722656 273.902344 " fill-opacity="1" fill-rule="nonzero"/><path fill="#32648d" d="M 268.902344 382.851562 C 268.902344 377.824219 269.292969 372.910156 270.019531 368.078125 L 269.964844 368.609375 C 272.8125 347.96875 273.203125 328.667969 272.867188 313.421875 C 272.535156 298.5625 271.472656 288.675781 271.472656 282.503906 C 271.472656 282.417969 271.472656 282.335938 271.472656 282.253906 C 271.472656 282.167969 271.472656 282.054688 271.472656 281.972656 L 271.472656 281.832031 L 271.445312 281.664062 L 271.445312 281.636719 C 271.445312 281.582031 271.445312 281.554688 271.445312 281.496094 C 271.445312 248.429688 277.253906 216.730469 287.78125 187.320312 C 295.519531 166.542969 307.027344 145.457031 324.257812 128.363281 C 307.304688 122.722656 277.253906 114.121094 244.6875 112.5 C 241.558594 112.332031 237.902344 112.222656 234.242188 112.222656 L 234.214844 112.222656 L 234.214844 112.25 C 230.722656 112.25 227.203125 112.359375 223.742188 112.554688 C 195.867188 114.175781 169.503906 122.359375 150.679688 142.578125 C 131.800781 162.800781 119.371094 195.953125 122.082031 250.832031 C 122.609375 261.222656 127.078125 290.324219 134.730469 324.898438 C 142.414062 359.476562 153.222656 400.167969 166.234375 436.113281 C 179.277344 472.058594 195.085938 503.335938 210.113281 518.140625 C 217.679688 525.539062 224.246094 528.527344 230.191406 528.277344 C 236.167969 528 243.375 524.507812 252.171875 513.808594 C 269.460938 492.753906 285.800781 474.125 302.667969 456.027344 L 302.109375 456.613281 C 281.722656 438.597656 268.902344 412.261719 268.902344 382.851562 Z M 268.902344 382.851562 " fill-opacity="1" fill-rule="nonzero"/><path fill="#32648d" d="M 417.457031 110.851562 L 417.457031 110.796875 C 384.835938 110.878906 361.457031 120.851562 343.695312 135.792969 C 325.402344 151.238281 313.140625 172.378906 305.070312 194.023438 C 295.492188 219.71875 292.222656 244.574219 290.910156 261.445312 L 291.273438 261.222656 C 301.132812 255.636719 314.0625 250.050781 327.917969 246.808594 C 341.769531 243.570312 356.683594 242.59375 370.199219 247.898438 C 383.71875 253.207031 394.890625 265.691406 398.9375 284.625 C 418.351562 375.589844 392.90625 409.414062 383.523438 434.9375 C 380.535156 442.285156 377.433594 451.722656 374.835938 461.359375 L 374.390625 463.230469 C 375.5625 462.953125 376.765625 462.617188 377.9375 462.503906 C 384.554688 461.945312 389.75 464.179688 392.824219 465.519531 C 402.261719 469.488281 408.742188 477.808594 412.234375 487.304688 C 413.15625 489.792969 413.796875 492.472656 414.1875 495.238281 C 414.550781 496.1875 414.746094 497.304688 414.746094 498.449219 C 414.746094 498.5625 414.746094 498.671875 414.746094 498.785156 C 414.300781 512.75 414.019531 529.144531 414.019531 545.621094 C 414.019531 565.144531 414.410156 584.582031 415.136719 603.9375 C 415.78125 618.628906 416.703125 631.640625 417.847656 641.890625 C 419.046875 652.335938 420.722656 660.242188 421.785156 662.921875 C 425.304688 671.859375 430.472656 683.5625 439.800781 691.523438 C 449.128906 699.453125 462.503906 704.761719 486.941406 699.453125 C 508.140625 694.84375 521.210938 688.449219 529.953125 679.261719 C 538.695312 670.074219 543.890625 657.28125 547.214844 637.703125 C 552.214844 608.378906 562.238281 523.335938 563.46875 507.332031 C 562.910156 495.265625 564.667969 485.992188 568.496094 478.925781 C 572.40625 471.664062 578.496094 467.226562 583.71875 464.824219 C 586.34375 463.621094 588.800781 462.8125 590.8125 462.226562 C 588.351562 458.679688 586.148438 455.71875 583.855469 452.839844 L 584.109375 453.148438 C 576.875 444.324219 570.703125 434.183594 566.039062 423.265625 L 565.730469 422.453125 C 562.910156 416.617188 560.535156 412.203125 558.050781 407.875 L 558.636719 408.964844 C 554.976562 402.261719 550.34375 393.882812 545.480469 384.472656 C 535.761719 365.621094 525.207031 342.773438 519.703125 320.515625 C 514.230469 298.28125 513.449219 275.269531 527.46875 259.042969 C 539.867188 244.632812 561.679688 238.65625 594.386719 242.007812 C 593.4375 239.074219 592.851562 236.644531 591.203125 232.734375 C 583.242188 214.023438 573.664062 197.878906 562.296875 183.242188 C 534.5625 147.4375 489.734375 111.996094 420.527344 110.851562 Z M 417.457031 110.851562 " fill-opacity="1" fill-rule="nonzero"/><path fill="#32648d" d="M 290.519531 284.066406 L 290.574219 284.039062 L 290.660156 283.957031 Z M 290.519531 284.066406 " fill-opacity="1" fill-rule="nonzero"/><path fill="#32648d" d="M 331.574219 265.160156 L 331.855469 265.132812 L 332.078125 265.046875 Z M 331.574219 265.160156 " fill-opacity="1" fill-rule="nonzero"/><path fill="#32648d" d="M 366.179688 428.375 C 377.378906 397.820312 399.414062 375.535156 380.871094 288.5625 C 377.824219 274.320312 371.820312 268.566406 363.554688 265.328125 C 359.53125 263.847656 354.867188 262.980469 349.980469 262.980469 C 349.671875 262.980469 349.335938 262.980469 349.03125 262.980469 L 349.085938 262.980469 C 343.136719 263.035156 337.382812 263.789062 331.855469 265.132812 C 320.125 268.09375 309.789062 272.28125 300.183594 277.644531 C 296.578125 279.625 293.480469 281.695312 290.574219 284.011719 L 290.042969 284.515625 C 290.210938 288.59375 290.996094 298.480469 291.328125 313.03125 C 291.664062 328.949219 291.273438 349.253906 288.230469 371.234375 C 281.636719 418.992188 315.878906 458.539062 356.097656 458.59375 C 358.46875 448.792969 362.324219 438.847656 366.179688 428.375 Z M 342.410156 289.597656 C 341.097656 288.257812 340.039062 286.75 339.171875 285.101562 L 339.117188 284.988281 C 338.390625 283.816406 337.96875 282.390625 337.96875 280.855469 C 337.96875 280.578125 338 280.296875 338.027344 280.019531 L 338.027344 280.046875 C 338.445312 277.03125 340.902344 275.464844 343.277344 274.597656 C 345.484375 273.875 347.941406 273.453125 350.566406 273.453125 C 350.957031 273.453125 351.347656 273.453125 351.796875 273.480469 L 351.765625 273.371094 C 353.21875 273.371094 354.785156 273.511719 356.347656 273.734375 C 360.566406 274.320312 364.335938 275.464844 367.183594 277.140625 C 368.609375 277.921875 369.835938 278.902344 370.816406 280.074219 L 370.84375 280.101562 C 371.792969 281.191406 372.351562 282.613281 372.351562 284.207031 C 372.351562 284.429688 372.351562 284.652344 372.324219 284.878906 L 372.324219 284.847656 C 372.042969 286.523438 371.289062 287.976562 370.257812 289.152344 C 369.109375 290.546875 367.828125 291.746094 366.375 292.753906 L 366.320312 292.78125 C 363.496094 294.847656 359.949219 296.078125 356.125 296.078125 C 355.371094 296.078125 354.617188 296.019531 353.890625 295.9375 L 353.972656 295.9375 C 349.335938 295.15625 345.371094 292.863281 342.410156 289.597656 Z M 342.410156 289.597656 " fill-opacity="1" fill-rule="nonzero"/><path fill="#32648d" d="M 299.625 277.921875 C 299.820312 277.8125 300.015625 277.753906 300.183594 277.644531 C 300.210938 277.644531 300.238281 277.617188 300.265625 277.585938 Z M 299.625 277.921875 " fill-opacity="1" fill-rule="nonzero"/><path fill="#32648d" d="M 577.179688 171.847656 C 589.273438 187.351562 599.746094 205 607.820312 223.9375 L 608.40625 225.472656 C 611.449219 232.847656 613.488281 239.074219 614.632812 243.90625 C 615.21875 246.335938 615.613281 248.375 615.75 250.496094 C 615.808594 251.558594 615.863281 252.648438 615.417969 254.519531 C 615.417969 254.601562 615.277344 254.796875 615.25 254.882812 C 616.085938 279.347656 610.082031 295.9375 609.382812 319.285156 C 608.824219 336.210938 613.097656 356.097656 614.160156 377.796875 C 615.164062 398.183594 612.734375 420.582031 599.636719 442.5625 C 600.753906 443.90625 601.730469 445.246094 602.792969 446.585938 C 637.394531 391.425781 662.335938 330.402344 675.628906 278.371094 C 682.753906 250.355469 686.523438 224.96875 686.859375 204.859375 C 687.136719 184.753906 683.421875 170.171875 678.730469 164.085938 C 641.695312 116.160156 591.621094 103.953125 549.617188 103.617188 L 549.617188 103.648438 L 545.59375 103.648438 C 529.394531 103.898438 513.753906 105.769531 498.644531 109.035156 C 532.941406 124.453125 558.917969 148.195312 577.179688 171.847656 Z M 577.179688 171.847656 " fill-opacity="1" fill-rule="nonzero"/><g clip-path="url(#06e619081f)"><path fill="#ffffff" d="M 422.066406 74.265625 L 421.785156 74.265625 C 389.277344 73.707031 361.375 81.695312 338.835938 94.988281 C 316.660156 87.195312 270.660156 73.761719 222.148438 76.445312 C 188.382812 78.316406 151.515625 88.703125 124.203125 117.890625 C 96.972656 147.078125 82.589844 192.238281 85.605469 253.679688 C 86.441406 270.632812 91.21875 298.28125 99.121094 334.089844 C 107.054688 369.894531 118.171875 411.8125 132.050781 450.046875 C 145.933594 488.3125 161.125 522.664062 184.890625 546.011719 C 196.761719 557.714844 213.101562 567.546875 232.34375 566.734375 C 245.859375 566.175781 258.066406 560.171875 268.625 551.320312 C 273.761719 558.160156 279.234375 561.148438 284.234375 563.914062 C 290.519531 567.40625 296.636719 569.78125 302.976562 571.34375 C 314.371094 574.21875 333.863281 578.074219 356.710938 574.136719 C 364.503906 572.824219 372.6875 570.253906 380.839844 566.597656 C 381.148438 575.8125 381.511719 584.832031 381.847656 593.964844 C 382.992188 622.902344 383.691406 649.628906 392.265625 673.0625 C 393.632812 676.886719 397.429688 696.605469 412.316406 714.003906 C 427.203125 731.433594 456.417969 742.296875 489.652344 735.089844 C 513.113281 730.007812 542.914062 720.847656 562.742188 692.304688 C 582.320312 664.09375 591.144531 623.625 592.90625 557.992188 C 593.351562 554.445312 593.882812 551.429688 594.414062 548.609375 L 599.078125 549.027344 L 599.636719 549.027344 C 624.660156 550.171875 651.808594 546.570312 674.484375 535.902344 C 694.566406 526.488281 709.761719 516.964844 720.847656 500.070312 C 723.613281 495.878906 726.628906 490.824219 727.46875 482.109375 C 728.304688 473.398438 723.363281 459.769531 715.148438 453.484375 C 698.726562 440.859375 688.421875 445.664062 677.363281 447.980469 C 667.503906 450.300781 656.109375 451.753906 644.433594 452.058594 L 644.210938 452.058594 C 676.105469 397.683594 698.980469 339.925781 712.023438 288.816406 C 719.757812 258.652344 724.085938 230.835938 724.421875 206.507812 C 724.785156 182.183594 722.832031 160.648438 708.417969 142.019531 C 663.425781 83.816406 600.167969 67.730469 551.207031 67.171875 C 549.699219 67.144531 548.164062 67.117188 546.65625 67.144531 L 546.65625 67.058594 C 520.011719 67.285156 494.371094 71.304688 470.101562 78.484375 L 468.957031 78.875 C 454.9375 76.25 438.652344 74.574219 422.066406 74.265625 Z M 488.226562 92.054688 C 505.320312 87.839844 524.984375 85.296875 545.203125 85.046875 L 545.371094 85.046875 L 545.398438 84.933594 C 591.703125 84.488281 650.828125 97.640625 693.308594 152.578125 C 702.863281 164.921875 705.710938 182.964844 705.375 205.195312 C 705.011719 227.398438 700.960938 253.988281 693.535156 283.117188 C 679.121094 339.535156 651.917969 405.304688 613.601562 464.320312 C 614.859375 465.242188 616.308594 466.050781 617.816406 466.667969 L 617.957031 466.722656 C 625.945312 470.074219 644.183594 472.949219 680.574219 465.382812 C 689.734375 463.425781 696.4375 462.113281 703.390625 467.476562 C 706.519531 470.15625 708.476562 474.125 708.476562 478.5625 C 708.476562 478.84375 708.476562 479.121094 708.445312 479.402344 L 708.445312 479.375 C 708.027344 482.921875 706.769531 486.105469 704.84375 488.757812 C 697.804688 499.453125 683.925781 509.59375 666.164062 517.945312 C 650.410156 525.371094 627.816406 529.253906 607.792969 529.476562 C 597.738281 529.589844 588.492188 528.808594 580.617188 526.324219 L 580.113281 526.125 C 577.070312 555.730469 570.085938 614.1875 565.535156 640.859375 C 561.90625 662.363281 555.535156 679.457031 543.359375 692.246094 C 531.210938 705.039062 514.035156 712.746094 490.910156 717.773438 C 462.28125 724.003906 441.390625 717.300781 427.929688 705.820312 C 414.496094 694.371094 408.351562 679.175781 404.636719 669.875 C 402.09375 663.453125 400.78125 655.128906 399.496094 644.015625 C 398.214844 632.898438 397.292969 619.296875 396.648438 603.964844 C 396.035156 588.378906 395.699219 570.058594 395.699219 551.652344 C 395.699219 545.59375 395.753906 539.5625 395.8125 533.5 C 384.277344 544.226562 369.699219 551.765625 353.5 554.640625 L 352.996094 554.726562 C 333.976562 557.992188 317.023438 554.78125 306.886719 552.210938 C 301.496094 550.84375 296.804688 548.917969 292.390625 546.515625 C 287.753906 544 283.339844 541.125 280.382812 535.511719 C 279.207031 533.359375 278.511719 530.761719 278.511719 528.027344 C 278.511719 526.9375 278.621094 525.847656 278.84375 524.84375 C 279.851562 521.101562 281.945312 517.914062 284.820312 515.679688 L 284.851562 515.652344 C 290.324219 511.15625 297.53125 508.644531 308.449219 506.351562 C 328.28125 502.21875 335.207031 499.398438 339.421875 496.019531 C 342.996094 493.113281 347.074219 487.25 354.226562 478.648438 C 354.199219 478.398438 354.167969 477.976562 354.140625 477.585938 L 354.140625 477.503906 C 340.625 477.113281 328.027344 473.453125 317.023438 467.28125 L 317.441406 467.503906 C 313.308594 471.917969 292.167969 494.539062 266.417969 525.929688 C 255.582031 539.058594 243.597656 546.597656 230.976562 547.128906 C 218.351562 547.660156 206.929688 541.238281 197.210938 531.710938 C 177.796875 512.636719 162.324219 479.820312 148.835938 442.730469 C 135.375 405.640625 124.425781 364.335938 116.632812 329.144531 C 108.8125 293.953125 104.234375 265.578125 103.5625 251.894531 C 100.660156 193.746094 114.09375 154.5625 137.132812 129.84375 C 160.203125 105.128906 191.820312 95.769531 222.625 93.984375 C 277.953125 90.773438 330.457031 110.292969 341.097656 114.484375 C 361.597656 100.40625 387.992188 91.636719 420.917969 92.195312 C 437.507812 92.449219 453.457031 94.652344 468.707031 98.589844 L 467.308594 98.285156 L 467.867188 98.03125 C 473.203125 96.023438 480.015625 93.984375 487 92.308594 Z M 488.226562 92.054688 " fill-opacity="1" fill-rule="nonzero"/></g></svg>