<svg xmlns="http://www.w3.org/2000/svg" xmlns:xlink="http://www.w3.org/1999/xlink" width="1080" zoomAndPan="magnify" viewBox="0 0 810 809.999993" height="1080" preserveAspectRatio="xMidYMid meet" version="1.0"><defs><clipPath id="28aee68d3a"><path d="M 82.082031 237.699219 L 728 237.699219 L 728 572.199219 L 82.082031 572.199219 Z M 82.082031 237.699219 " clip-rule="nonzero"/></clipPath><clipPath id="0b066cd7d4"><path d="M 82.6875 405.1875 C 82.6875 497.566406 227.070312 572.457031 405.160156 572.457031 C 583.246094 572.457031 727.628906 497.566406 727.628906 405.1875 C 727.628906 312.808594 583.246094 237.917969 405.160156 237.917969 C 227.070312 237.917969 82.6875 312.8125 82.6875 405.1875 " clip-rule="nonzero"/></clipPath><clipPath id="41564834e7"><path d="M 82.6875 405.1875 C 82.6875 497.566406 227.070312 572.457031 405.160156 572.457031 C 583.246094 572.457031 727.628906 497.566406 727.628906 405.1875 C 727.628906 312.808594 583.246094 237.917969 405.160156 237.917969 C 227.070312 237.917969 82.6875 312.8125 82.6875 405.1875 " clip-rule="nonzero"/></clipPath><radialGradient gradientTransform="matrix(1.00701, 0, 0, 0.99299, 276.301641, 296.722367)" gradientUnits="userSpaceOnUse" r="420.503081" cx="0" id="40c5354c99" cy="0" fx="0" fy="0"><stop stop-opacity="1" stop-color="rgb(68.199158%, 69.799805%, 83.499146%)" offset="0"/><stop stop-opacity="1" stop-color="rgb(68.199158%, 69.799805%, 83.499146%)" offset="0.25"/><stop stop-opacity="1" stop-color="rgb(68.164062%, 69.764709%, 83.473206%)" offset="0.296875"/><stop stop-opacity="1" stop-color="rgb(67.956543%, 69.555664%, 83.317566%)" offset="0.300781"/><stop stop-opacity="1" stop-color="rgb(67.608643%, 69.20929%, 83.059692%)" offset="0.304688"/><stop stop-opacity="1" stop-color="rgb(67.260742%, 68.861389%, 82.800293%)" offset="0.308594"/><stop stop-opacity="1" stop-color="rgb(66.914368%, 68.513489%, 82.542419%)" offset="0.3125"/><stop stop-opacity="1" stop-color="rgb(66.566467%, 68.167114%, 82.28302%)" offset="0.316406"/><stop stop-opacity="1" stop-color="rgb(66.220093%, 67.819214%, 82.025146%)" offset="0.320312"/><stop stop-opacity="1" stop-color="rgb(65.872192%, 67.472839%, 81.765747%)" offset="0.324219"/><stop stop-opacity="1" stop-color="rgb(65.525818%, 67.124939%, 81.506348%)" offset="0.328125"/><stop stop-opacity="1" stop-color="rgb(65.177917%, 66.778564%, 81.248474%)" offset="0.332031"/><stop stop-opacity="1" stop-color="rgb(64.831543%, 66.430664%, 80.989075%)" offset="0.335938"/><stop stop-opacity="1" stop-color="rgb(64.483643%, 66.08429%, 80.731201%)" offset="0.339844"/><stop stop-opacity="1" stop-color="rgb(64.135742%, 65.736389%, 80.471802%)" offset="0.34375"/><stop stop-opacity="1" stop-color="rgb(63.789368%, 65.388489%, 80.213928%)" offset="0.347656"/><stop stop-opacity="1" stop-color="rgb(63.441467%, 65.042114%, 79.954529%)" offset="0.351562"/><stop stop-opacity="1" stop-color="rgb(63.095093%, 64.694214%, 79.696655%)" offset="0.355469"/><stop stop-opacity="1" stop-color="rgb(62.747192%, 64.347839%, 79.437256%)" offset="0.359375"/><stop stop-opacity="1" stop-color="rgb(62.400818%, 63.999939%, 79.179382%)" offset="0.363281"/><stop stop-opacity="1" stop-color="rgb(62.052917%, 63.653564%, 78.919983%)" offset="0.367188"/><stop stop-opacity="1" stop-color="rgb(61.706543%, 63.305664%, 78.662109%)" offset="0.371094"/><stop stop-opacity="1" stop-color="rgb(61.358643%, 62.95929%, 78.40271%)" offset="0.375"/><stop stop-opacity="1" stop-color="rgb(61.010742%, 62.611389%, 78.144836%)" offset="0.378906"/><stop stop-opacity="1" stop-color="rgb(60.664368%, 62.263489%, 77.885437%)" offset="0.382812"/><stop stop-opacity="1" stop-color="rgb(60.316467%, 61.917114%, 77.627563%)" offset="0.386719"/><stop stop-opacity="1" stop-color="rgb(59.970093%, 61.569214%, 77.368164%)" offset="0.390625"/><stop stop-opacity="1" stop-color="rgb(59.622192%, 61.222839%, 77.108765%)" offset="0.394531"/><stop stop-opacity="1" stop-color="rgb(59.275818%, 60.874939%, 76.850891%)" offset="0.398438"/><stop stop-opacity="1" stop-color="rgb(58.927917%, 60.528564%, 76.591492%)" offset="0.402344"/><stop stop-opacity="1" stop-color="rgb(58.581543%, 60.180664%, 76.333618%)" offset="0.40625"/><stop stop-opacity="1" stop-color="rgb(58.233643%, 59.83429%, 76.074219%)" offset="0.410156"/><stop stop-opacity="1" stop-color="rgb(57.885742%, 59.486389%, 75.816345%)" offset="0.414062"/><stop stop-opacity="1" stop-color="rgb(57.539368%, 59.138489%, 75.556946%)" offset="0.417969"/><stop stop-opacity="1" stop-color="rgb(57.191467%, 58.792114%, 75.299072%)" offset="0.421875"/><stop stop-opacity="1" stop-color="rgb(56.845093%, 58.444214%, 75.039673%)" offset="0.425781"/><stop stop-opacity="1" stop-color="rgb(56.497192%, 58.097839%, 74.781799%)" offset="0.429688"/><stop stop-opacity="1" stop-color="rgb(56.150818%, 57.749939%, 74.5224%)" offset="0.433594"/><stop stop-opacity="1" stop-color="rgb(55.802917%, 57.403564%, 74.264526%)" offset="0.4375"/><stop stop-opacity="1" stop-color="rgb(55.456543%, 57.055664%, 74.005127%)" offset="0.441406"/><stop stop-opacity="1" stop-color="rgb(55.108643%, 56.70929%, 73.747253%)" offset="0.445312"/><stop stop-opacity="1" stop-color="rgb(54.760742%, 56.361389%, 73.487854%)" offset="0.449219"/><stop stop-opacity="1" stop-color="rgb(54.414368%, 56.013489%, 73.22998%)" offset="0.453125"/><stop stop-opacity="1" stop-color="rgb(54.066467%, 55.667114%, 72.970581%)" offset="0.457031"/><stop stop-opacity="1" stop-color="rgb(53.720093%, 55.319214%, 72.711182%)" offset="0.460938"/><stop stop-opacity="1" stop-color="rgb(53.372192%, 54.972839%, 72.453308%)" offset="0.464844"/><stop stop-opacity="1" stop-color="rgb(53.025818%, 54.624939%, 72.193909%)" offset="0.46875"/><stop stop-opacity="1" stop-color="rgb(52.677917%, 54.278564%, 71.936035%)" offset="0.472656"/><stop stop-opacity="1" stop-color="rgb(52.331543%, 53.930664%, 71.676636%)" offset="0.476562"/><stop stop-opacity="1" stop-color="rgb(51.983643%, 53.58429%, 71.418762%)" offset="0.480469"/><stop stop-opacity="1" stop-color="rgb(51.635742%, 53.236389%, 71.159363%)" offset="0.484375"/><stop stop-opacity="1" stop-color="rgb(51.289368%, 52.888489%, 70.901489%)" offset="0.488281"/><stop stop-opacity="1" stop-color="rgb(50.941467%, 52.542114%, 70.64209%)" offset="0.492188"/><stop stop-opacity="1" stop-color="rgb(50.595093%, 52.194214%, 70.384216%)" offset="0.496094"/><stop stop-opacity="1" stop-color="rgb(50.247192%, 51.847839%, 70.124817%)" offset="0.5"/><stop stop-opacity="1" stop-color="rgb(49.900818%, 51.499939%, 69.866943%)" offset="0.503906"/><stop stop-opacity="1" stop-color="rgb(49.552917%, 51.153564%, 69.607544%)" offset="0.507812"/><stop stop-opacity="1" stop-color="rgb(49.206543%, 50.805664%, 69.34967%)" offset="0.511719"/><stop stop-opacity="1" stop-color="rgb(48.858643%, 50.45929%, 69.090271%)" offset="0.515625"/><stop stop-opacity="1" stop-color="rgb(48.510742%, 50.111389%, 68.832397%)" offset="0.519531"/><stop stop-opacity="1" stop-color="rgb(48.164368%, 49.763489%, 68.572998%)" offset="0.523438"/><stop stop-opacity="1" stop-color="rgb(47.816467%, 49.417114%, 68.313599%)" offset="0.527344"/><stop stop-opacity="1" stop-color="rgb(47.470093%, 49.069214%, 68.055725%)" offset="0.53125"/><stop stop-opacity="1" stop-color="rgb(47.122192%, 48.722839%, 67.796326%)" offset="0.535156"/><stop stop-opacity="1" stop-color="rgb(46.775818%, 48.374939%, 67.538452%)" offset="0.539062"/><stop stop-opacity="1" stop-color="rgb(46.427917%, 48.028564%, 67.279053%)" offset="0.542969"/><stop stop-opacity="1" stop-color="rgb(46.081543%, 47.680664%, 67.021179%)" offset="0.546875"/><stop stop-opacity="1" stop-color="rgb(45.733643%, 47.33429%, 66.76178%)" offset="0.550781"/><stop stop-opacity="1" stop-color="rgb(45.385742%, 46.986389%, 66.503906%)" offset="0.554688"/><stop stop-opacity="1" stop-color="rgb(45.039368%, 46.638489%, 66.244507%)" offset="0.558594"/><stop stop-opacity="1" stop-color="rgb(44.691467%, 46.292114%, 65.986633%)" offset="0.5625"/><stop stop-opacity="1" stop-color="rgb(44.345093%, 45.944214%, 65.727234%)" offset="0.566406"/><stop stop-opacity="1" stop-color="rgb(43.997192%, 45.597839%, 65.46936%)" offset="0.570312"/><stop stop-opacity="1" stop-color="rgb(43.650818%, 45.249939%, 65.209961%)" offset="0.574219"/><stop stop-opacity="1" stop-color="rgb(43.302917%, 44.903564%, 64.952087%)" offset="0.578125"/><stop stop-opacity="1" stop-color="rgb(42.956543%, 44.555664%, 64.692688%)" offset="0.582031"/><stop stop-opacity="1" stop-color="rgb(42.608643%, 44.20929%, 64.434814%)" offset="0.585938"/><stop stop-opacity="1" stop-color="rgb(42.260742%, 43.861389%, 64.175415%)" offset="0.589844"/><stop stop-opacity="1" stop-color="rgb(41.914368%, 43.513489%, 63.916016%)" offset="0.59375"/><stop stop-opacity="1" stop-color="rgb(41.566467%, 43.167114%, 63.658142%)" offset="0.597656"/><stop stop-opacity="1" stop-color="rgb(41.220093%, 42.819214%, 63.398743%)" offset="0.601562"/><stop stop-opacity="1" stop-color="rgb(40.872192%, 42.472839%, 63.140869%)" offset="0.605469"/><stop stop-opacity="1" stop-color="rgb(40.525818%, 42.124939%, 62.88147%)" offset="0.609375"/><stop stop-opacity="1" stop-color="rgb(40.177917%, 41.778564%, 62.623596%)" offset="0.613281"/><stop stop-opacity="1" stop-color="rgb(39.831543%, 41.430664%, 62.364197%)" offset="0.617188"/><stop stop-opacity="1" stop-color="rgb(39.483643%, 41.08429%, 62.106323%)" offset="0.621094"/><stop stop-opacity="1" stop-color="rgb(39.135742%, 40.736389%, 61.846924%)" offset="0.625"/><stop stop-opacity="1" stop-color="rgb(38.789368%, 40.388489%, 61.58905%)" offset="0.628906"/><stop stop-opacity="1" stop-color="rgb(38.441467%, 40.042114%, 61.329651%)" offset="0.632812"/><stop stop-opacity="1" stop-color="rgb(38.095093%, 39.694214%, 61.071777%)" offset="0.636719"/><stop stop-opacity="1" stop-color="rgb(37.747192%, 39.347839%, 60.812378%)" offset="0.640625"/><stop stop-opacity="1" stop-color="rgb(37.400818%, 38.999939%, 60.554504%)" offset="0.644531"/><stop stop-opacity="1" stop-color="rgb(37.052917%, 38.653564%, 60.295105%)" offset="0.648438"/><stop stop-opacity="1" stop-color="rgb(36.706543%, 38.305664%, 60.037231%)" offset="0.652344"/><stop stop-opacity="1" stop-color="rgb(36.358643%, 37.95929%, 59.777832%)" offset="0.65625"/><stop stop-opacity="1" stop-color="rgb(36.010742%, 37.611389%, 59.518433%)" offset="0.660156"/><stop stop-opacity="1" stop-color="rgb(35.664368%, 37.263489%, 59.260559%)" offset="0.664062"/><stop stop-opacity="1" stop-color="rgb(35.316467%, 36.917114%, 59.00116%)" offset="0.667969"/><stop stop-opacity="1" stop-color="rgb(34.970093%, 36.569214%, 58.743286%)" offset="0.671875"/><stop stop-opacity="1" stop-color="rgb(34.622192%, 36.222839%, 58.483887%)" offset="0.675781"/><stop stop-opacity="1" stop-color="rgb(34.275818%, 35.874939%, 58.226013%)" offset="0.679688"/><stop stop-opacity="1" stop-color="rgb(33.927917%, 35.528564%, 57.966614%)" offset="0.683594"/><stop stop-opacity="1" stop-color="rgb(33.581543%, 35.180664%, 57.70874%)" offset="0.6875"/><stop stop-opacity="1" stop-color="rgb(33.233643%, 34.83429%, 57.449341%)" offset="0.691406"/><stop stop-opacity="1" stop-color="rgb(32.885742%, 34.486389%, 57.191467%)" offset="0.695312"/><stop stop-opacity="1" stop-color="rgb(32.539368%, 34.138489%, 56.932068%)" offset="0.699219"/><stop stop-opacity="1" stop-color="rgb(32.191467%, 33.792114%, 56.674194%)" offset="0.703125"/><stop stop-opacity="1" stop-color="rgb(31.845093%, 33.444214%, 56.414795%)" offset="0.707031"/><stop stop-opacity="1" stop-color="rgb(31.497192%, 33.097839%, 56.156921%)" offset="0.710938"/><stop stop-opacity="1" stop-color="rgb(31.150818%, 32.749939%, 55.897522%)" offset="0.714844"/><stop stop-opacity="1" stop-color="rgb(30.802917%, 32.403564%, 55.639648%)" offset="0.71875"/><stop stop-opacity="1" stop-color="rgb(30.456543%, 32.055664%, 55.380249%)" offset="0.722656"/><stop stop-opacity="1" stop-color="rgb(30.108643%, 31.70929%, 55.122375%)" offset="0.726562"/><stop stop-opacity="1" stop-color="rgb(29.760742%, 31.361389%, 54.862976%)" offset="0.730469"/><stop stop-opacity="1" stop-color="rgb(29.414368%, 31.013489%, 54.603577%)" offset="0.734375"/><stop stop-opacity="1" stop-color="rgb(29.066467%, 30.667114%, 54.345703%)" offset="0.738281"/><stop stop-opacity="1" stop-color="rgb(28.720093%, 30.319214%, 54.086304%)" offset="0.742188"/><stop stop-opacity="1" stop-color="rgb(28.372192%, 29.972839%, 53.82843%)" offset="0.746094"/><stop stop-opacity="1" stop-color="rgb(28.199768%, 29.798889%, 53.69873%)" offset="1"/></radialGradient></defs><g clip-path="url(#28aee68d3a)"><g clip-path="url(#0b066cd7d4)"><g clip-path="url(#41564834e7)"><path fill="url(#40c5354c99)" d="M 82.6875 237.917969 L 82.6875 572.199219 L 727.628906 572.199219 L 727.628906 237.917969 Z M 82.6875 237.917969 " fill-rule="nonzero"/></g></g></g><path fill="#777bb3" d="M 405.160156 560.039062 C 576.296875 560.039062 715.03125 490.710938 715.03125 405.1875 C 715.03125 319.667969 576.296875 250.339844 405.160156 250.339844 C 234.023438 250.339844 95.285156 319.667969 95.285156 405.1875 C 95.285156 490.710938 234.023438 560.039062 405.160156 560.039062 " fill-opacity="1" fill-rule="nonzero"/><path fill="#000000" d="M 257.886719 424.382812 C 271.957031 424.382812 282.460938 421.824219 289.109375 416.78125 C 295.683594 411.789062 300.226562 403.140625 302.605469 391.074219 C 304.824219 379.796875 303.980469 371.921875 300.09375 367.671875 C 296.121094 363.332031 287.527344 361.128906 274.558594 361.128906 L 252.070312 361.128906 L 239.605469 424.382812 Z M 184.335938 502.304688 C 183.292969 502.304688 182.300781 501.847656 181.636719 501.050781 C 181.304688 500.652344 181.074219 500.203125 180.945312 499.707031 C 180.816406 499.207031 180.800781 498.703125 180.902344 498.199219 L 213.941406 330.570312 C 214.019531 330.179688 214.164062 329.808594 214.371094 329.464844 C 214.578125 329.121094 214.839844 328.820312 215.152344 328.566406 C 215.464844 328.3125 215.8125 328.117188 216.195312 327.984375 C 216.578125 327.847656 216.972656 327.78125 217.378906 327.78125 L 288.585938 327.78125 C 310.964844 327.78125 327.625 333.761719 338.09375 345.589844 C 348.621094 357.472656 351.871094 374.082031 347.753906 394.953125 C 346.082031 403.457031 343.199219 411.355469 339.195312 418.425781 C 335.183594 425.507812 329.882812 432.054688 323.4375 437.898438 C 315.71875 445.019531 306.988281 450.183594 297.503906 453.222656 C 288.167969 456.21875 276.179688 457.742188 261.871094 457.742188 L 233.039062 457.742188 L 224.804688 499.515625 C 224.726562 499.910156 224.585938 500.277344 224.375 500.621094 C 224.167969 500.964844 223.910156 501.265625 223.597656 501.519531 C 223.28125 501.773438 222.933594 501.96875 222.554688 502.105469 C 222.171875 502.242188 221.777344 502.308594 221.371094 502.308594 L 184.328125 502.308594 Z M 184.335938 502.304688 " fill-opacity="1" fill-rule="nonzero"/><path fill="#ffffff" d="M 254.957031 364.578125 L 274.5625 364.578125 C 290.214844 364.578125 295.652344 367.964844 297.5 369.984375 C 300.566406 373.335938 301.144531 380.402344 299.171875 390.417969 C 296.960938 401.632812 292.855469 409.582031 286.976562 414.046875 C 280.957031 418.617188 271.167969 420.933594 257.886719 420.933594 L 243.855469 420.933594 L 254.964844 364.578125 Z M 288.582031 324.324219 L 217.378906 324.324219 C 216.566406 324.324219 215.777344 324.460938 215.015625 324.730469 C 214.25 325 213.554688 325.390625 212.925781 325.902344 C 212.300781 326.410156 211.78125 327.007812 211.363281 327.695312 C 210.949219 328.386719 210.664062 329.121094 210.507812 329.910156 L 177.472656 497.546875 C 177.371094 498.046875 177.332031 498.550781 177.34375 499.058594 C 177.359375 499.566406 177.429688 500.070312 177.558594 500.5625 C 177.683594 501.054688 177.863281 501.527344 178.097656 501.980469 C 178.332031 502.4375 178.613281 502.859375 178.941406 503.253906 C 179.269531 503.644531 179.636719 503.996094 180.042969 504.308594 C 180.449219 504.621094 180.886719 504.886719 181.355469 505.105469 C 181.820312 505.320312 182.304688 505.484375 182.808594 505.597656 C 183.3125 505.707031 183.824219 505.761719 184.339844 505.761719 L 221.371094 505.761719 C 222.183594 505.761719 222.972656 505.628906 223.734375 505.359375 C 224.5 505.085938 225.195312 504.695312 225.820312 504.1875 C 226.449219 503.679688 226.96875 503.078125 227.386719 502.390625 C 227.800781 501.703125 228.085938 500.964844 228.242188 500.179688 L 235.925781 461.195312 L 261.875 461.195312 C 276.550781 461.195312 288.902344 459.617188 298.589844 456.507812 C 308.550781 453.316406 317.71875 447.90625 325.832031 440.425781 C 332.539062 434.339844 338.078125 427.507812 342.253906 420.117188 C 346.425781 412.726562 349.449219 404.484375 351.195312 395.617188 C 355.527344 373.648438 352.007812 356.050781 340.734375 343.328125 C 329.570312 330.726562 312.027344 324.335938 288.589844 324.335938 M 235.367188 427.84375 L 257.894531 427.84375 C 272.824219 427.84375 283.945312 425.074219 291.25 419.523438 C 298.554688 413.976562 303.488281 404.714844 306.050781 391.742188 C 308.5 379.285156 307.382812 370.492188 302.703125 365.371094 C 298.019531 360.246094 288.636719 357.6875 274.570312 357.6875 L 249.195312 357.6875 L 235.367188 427.84375 M 288.59375 331.234375 C 310.015625 331.234375 325.640625 336.777344 335.464844 347.863281 C 345.289062 358.953125 348.246094 374.429688 344.324219 394.300781 C 342.714844 402.484375 339.984375 409.96875 336.144531 416.75 C 332.304688 423.53125 327.277344 429.738281 321.074219 435.363281 C 313.679688 442.1875 305.464844 447.046875 296.425781 449.945312 C 287.386719 452.851562 275.875 454.296875 261.878906 454.296875 L 230.15625 454.296875 L 221.375 498.863281 L 184.34375 498.863281 L 217.386719 331.246094 L 288.597656 331.246094 " fill-opacity="1" fill-rule="nonzero"/><path fill="#000000" d="M 432.660156 457.738281 C 431.617188 457.738281 430.625 457.277344 429.960938 456.480469 C 429.296875 455.683594 429.027344 454.640625 429.226562 453.628906 L 443.839844 379.457031 C 445.230469 372.40625 444.890625 367.34375 442.875 365.203125 C 441.644531 363.894531 437.945312 361.703125 427.007812 361.703125 L 400.527344 361.703125 L 382.152344 454.941406 C 382.074219 455.335938 381.933594 455.703125 381.726562 456.046875 C 381.515625 456.394531 381.257812 456.691406 380.945312 456.945312 C 380.628906 457.203125 380.28125 457.398438 379.898438 457.53125 C 379.519531 457.667969 379.125 457.734375 378.71875 457.734375 L 341.976562 457.734375 C 341.71875 457.734375 341.464844 457.707031 341.214844 457.652344 C 340.960938 457.597656 340.71875 457.515625 340.484375 457.40625 C 340.253906 457.296875 340.035156 457.164062 339.832031 457.007812 C 339.625 456.851562 339.441406 456.675781 339.277344 456.480469 C 339.113281 456.285156 338.972656 456.070312 338.855469 455.84375 C 338.742188 455.617188 338.652344 455.382812 338.585938 455.132812 C 338.523438 454.886719 338.488281 454.636719 338.480469 454.382812 C 338.472656 454.128906 338.492188 453.875 338.542969 453.628906 L 371.582031 286 C 371.660156 285.605469 371.804688 285.238281 372.011719 284.894531 C 372.21875 284.550781 372.480469 284.25 372.792969 283.996094 C 373.105469 283.742188 373.453125 283.546875 373.835938 283.410156 C 374.21875 283.277344 374.613281 283.207031 375.019531 283.207031 L 411.757812 283.207031 C 412.015625 283.207031 412.269531 283.238281 412.523438 283.292969 C 412.773438 283.347656 413.015625 283.429688 413.25 283.539062 C 413.484375 283.648438 413.703125 283.777344 413.90625 283.933594 C 414.109375 284.089844 414.292969 284.269531 414.457031 284.464844 C 414.621094 284.660156 414.761719 284.871094 414.878906 285.097656 C 414.996094 285.324219 415.085938 285.5625 415.148438 285.808594 C 415.210938 286.054688 415.25 286.304688 415.253906 286.5625 C 415.261719 286.816406 415.242188 287.066406 415.191406 287.316406 L 407.21875 327.773438 L 435.703125 327.773438 C 457.402344 327.773438 472.117188 331.546875 480.691406 339.308594 C 489.4375 347.226562 492.152344 359.882812 488.792969 376.941406 L 473.417969 454.945312 C 473.34375 455.339844 473.199219 455.707031 472.992188 456.050781 C 472.785156 456.394531 472.523438 456.695312 472.210938 456.949219 C 471.898438 457.203125 471.550781 457.398438 471.167969 457.535156 C 470.785156 457.667969 470.390625 457.738281 469.984375 457.738281 Z M 432.660156 457.738281 " fill-opacity="1" fill-rule="nonzero"/><path fill="#ffffff" d="M 411.761719 279.757812 L 375.019531 279.757812 C 374.207031 279.757812 373.421875 279.894531 372.65625 280.164062 C 371.890625 280.433594 371.195312 280.824219 370.570312 281.335938 C 369.941406 281.84375 369.421875 282.441406 369.007812 283.128906 C 368.589844 283.820312 368.304688 284.554688 368.152344 285.34375 L 335.109375 452.96875 C 335.011719 453.46875 334.96875 453.972656 334.984375 454.480469 C 335 454.988281 335.070312 455.492188 335.199219 455.984375 C 335.324219 456.476562 335.503906 456.949219 335.738281 457.40625 C 335.972656 457.859375 336.253906 458.28125 336.582031 458.675781 C 336.910156 459.066406 337.277344 459.417969 337.683594 459.730469 C 338.089844 460.042969 338.527344 460.308594 338.996094 460.527344 C 339.460938 460.742188 339.949219 460.90625 340.449219 461.019531 C 340.953125 461.128906 341.464844 461.183594 341.980469 461.183594 L 378.71875 461.183594 C 379.53125 461.1875 380.320312 461.050781 381.085938 460.78125 C 381.847656 460.507812 382.542969 460.117188 383.171875 459.609375 C 383.796875 459.101562 384.320312 458.5 384.734375 457.8125 C 385.148438 457.125 385.433594 456.386719 385.589844 455.601562 L 403.414062 365.152344 L 427.011719 365.152344 C 437.929688 365.152344 440.222656 367.453125 440.316406 367.550781 C 440.976562 368.253906 441.847656 371.507812 440.410156 378.800781 L 425.796875 452.96875 C 425.699219 453.46875 425.65625 453.972656 425.671875 454.480469 C 425.683594 454.988281 425.757812 455.492188 425.882812 455.984375 C 426.011719 456.476562 426.191406 456.949219 426.421875 457.40625 C 426.65625 457.859375 426.9375 458.28125 427.265625 458.675781 C 427.59375 459.066406 427.960938 459.417969 428.371094 459.730469 C 428.777344 460.042969 429.214844 460.308594 429.679688 460.527344 C 430.148438 460.742188 430.632812 460.90625 431.136719 461.019531 C 431.640625 461.128906 432.148438 461.183594 432.664062 461.183594 L 469.988281 461.183594 C 470.800781 461.1875 471.589844 461.050781 472.351562 460.78125 C 473.117188 460.507812 473.8125 460.117188 474.441406 459.609375 C 475.066406 459.101562 475.585938 458.5 476.003906 457.8125 C 476.417969 457.125 476.703125 456.386719 476.859375 455.601562 L 492.230469 377.597656 C 495.839844 359.285156 492.75 345.550781 483.0625 336.769531 C 473.816406 328.394531 458.328125 324.324219 435.710938 324.324219 L 411.46875 324.324219 L 418.632812 287.976562 C 418.730469 287.476562 418.773438 286.972656 418.757812 286.460938 C 418.746094 285.953125 418.671875 285.453125 418.546875 284.960938 C 418.417969 284.464844 418.238281 283.992188 418.007812 283.539062 C 417.773438 283.085938 417.492188 282.660156 417.164062 282.269531 C 416.835938 281.875 416.46875 281.523438 416.058594 281.210938 C 415.652344 280.898438 415.214844 280.632812 414.75 280.417969 C 414.28125 280.199219 413.796875 280.035156 413.292969 279.925781 C 412.789062 279.8125 412.28125 279.757812 411.765625 279.757812 M 411.765625 286.65625 L 402.980469 331.222656 L 435.710938 331.222656 C 456.304688 331.222656 470.511719 334.769531 478.328125 341.847656 C 486.148438 348.929688 488.488281 360.410156 485.363281 376.28125 L 469.992188 454.285156 L 432.667969 454.285156 L 447.285156 380.117188 C 448.945312 371.679688 448.335938 365.925781 445.449219 362.855469 C 442.558594 359.789062 436.414062 358.25 427.011719 358.25 L 397.644531 358.25 L 378.71875 454.285156 L 341.980469 454.285156 L 375.019531 286.65625 L 411.761719 286.65625 " fill-opacity="1" fill-rule="nonzero"/><path fill="#000000" d="M 546.925781 424.382812 C 561 424.382812 571.503906 421.824219 578.148438 416.78125 C 584.726562 411.789062 589.265625 403.140625 591.648438 391.074219 C 593.867188 379.796875 593.023438 371.921875 589.136719 367.671875 C 585.160156 363.332031 576.570312 361.128906 563.601562 361.128906 L 541.113281 361.128906 L 528.644531 424.382812 Z M 473.375 502.304688 C 472.332031 502.304688 471.339844 501.84375 470.675781 501.046875 C 470.34375 500.648438 470.113281 500.203125 469.984375 499.703125 C 469.855469 499.203125 469.839844 498.699219 469.941406 498.195312 L 502.980469 330.566406 C 503.058594 330.175781 503.199219 329.804688 503.410156 329.460938 C 503.617188 329.117188 503.875 328.816406 504.191406 328.5625 C 504.503906 328.308594 504.851562 328.113281 505.234375 327.980469 C 505.617188 327.84375 506.011719 327.777344 506.417969 327.777344 L 577.625 327.777344 C 600.007812 327.777344 616.664062 333.757812 627.132812 345.585938 C 637.660156 357.46875 640.910156 374.074219 636.792969 394.949219 C 635.117188 403.453125 632.238281 411.351562 628.230469 418.421875 C 624.21875 425.503906 618.917969 432.050781 612.472656 437.894531 C 604.757812 445.015625 596.023438 450.179688 586.539062 453.21875 C 577.207031 456.21875 565.21875 457.738281 550.910156 457.738281 L 522.054688 457.738281 L 513.824219 499.511719 C 513.746094 499.90625 513.605469 500.273438 513.394531 500.617188 C 513.1875 500.964844 512.929688 501.261719 512.613281 501.515625 C 512.300781 501.773438 511.953125 501.96875 511.570312 502.101562 C 511.1875 502.238281 510.792969 502.304688 510.386719 502.304688 L 473.355469 502.304688 Z M 473.375 502.304688 " fill-opacity="1" fill-rule="nonzero"/><path fill="#ffffff" d="M 544 364.578125 L 563.601562 364.578125 C 579.253906 364.578125 584.695312 367.964844 586.542969 369.984375 C 589.609375 373.335938 590.1875 380.402344 588.214844 390.417969 C 586 401.628906 581.898438 409.582031 576.019531 414.046875 C 569.996094 418.617188 560.210938 420.933594 546.929688 420.933594 L 532.894531 420.933594 Z M 577.625 324.324219 L 506.414062 324.324219 C 505.601562 324.324219 504.816406 324.460938 504.050781 324.730469 C 503.285156 325 502.589844 325.390625 501.964844 325.902344 C 501.339844 326.410156 500.816406 327.007812 500.402344 327.695312 C 499.988281 328.386719 499.703125 329.121094 499.546875 329.910156 L 466.503906 497.546875 C 466.40625 498.046875 466.363281 498.550781 466.378906 499.058594 C 466.394531 499.566406 466.464844 500.070312 466.589844 500.5625 C 466.71875 501.054688 466.898438 501.527344 467.132812 501.980469 C 467.367188 502.4375 467.644531 502.859375 467.972656 503.253906 C 468.300781 503.644531 468.671875 503.996094 469.078125 504.308594 C 469.484375 504.621094 469.921875 504.886719 470.386719 505.105469 C 470.855469 505.320312 471.339844 505.484375 471.84375 505.597656 C 472.347656 505.707031 472.855469 505.761719 473.375 505.761719 L 510.40625 505.761719 C 511.214844 505.761719 512.003906 505.628906 512.769531 505.359375 C 513.535156 505.085938 514.230469 504.695312 514.855469 504.1875 C 515.484375 503.679688 516.003906 503.078125 516.417969 502.390625 C 516.835938 501.703125 517.121094 500.964844 517.273438 500.179688 L 524.957031 461.195312 L 550.90625 461.195312 C 565.582031 461.195312 577.9375 459.617188 587.625 456.507812 C 597.585938 453.316406 606.753906 447.90625 614.863281 440.421875 C 621.574219 434.339844 627.097656 427.507812 631.285156 420.117188 C 635.472656 412.726562 638.480469 404.484375 640.226562 395.617188 C 644.5625 373.644531 641.042969 356.050781 629.765625 343.328125 C 618.601562 330.726562 601.058594 324.335938 577.625 324.335938 M 524.402344 427.84375 L 546.925781 427.84375 C 561.855469 427.84375 572.976562 425.074219 580.285156 419.523438 C 587.589844 413.976562 592.519531 404.714844 595.082031 391.742188 C 597.535156 379.285156 596.417969 370.492188 591.734375 365.371094 C 587.050781 360.246094 577.667969 357.6875 563.601562 357.6875 L 538.230469 357.6875 L 524.402344 427.84375 M 577.625 331.234375 C 599.046875 331.234375 614.675781 336.777344 624.496094 347.863281 C 634.320312 358.953125 637.277344 374.429688 633.359375 394.300781 C 631.746094 402.484375 629.019531 409.96875 625.175781 416.75 C 621.335938 423.53125 616.308594 429.738281 610.105469 435.363281 C 602.710938 442.1875 594.496094 447.046875 585.457031 449.945312 C 576.417969 452.851562 564.90625 454.296875 550.910156 454.296875 L 519.191406 454.296875 L 510.40625 498.863281 L 473.375 498.863281 L 506.417969 331.234375 L 577.625 331.234375 " fill-opacity="1" fill-rule="nonzero"/></svg>