<svg xmlns="http://www.w3.org/2000/svg" xmlns:xlink="http://www.w3.org/1999/xlink" width="1080" zoomAndPan="magnify" viewBox="0 0 810 809.999993" height="1080" preserveAspectRatio="xMidYMid meet" version="1.0"><defs><clipPath id="06fd484339"><path d="M 157.824219 163.390625 L 652.175781 163.390625 L 652.175781 657.746094 L 157.824219 657.746094 Z M 157.824219 163.390625 " clip-rule="nonzero"/></clipPath><clipPath id="ae391bc7f0"><path d="M 75.429688 81 L 734.570312 81 L 734.570312 740.140625 L 75.429688 740.140625 Z M 75.429688 81 " clip-rule="nonzero"/></clipPath></defs><g clip-path="url(#06fd484339)"><path fill="#ffffff" d="M 157.824219 163.390625 L 652.175781 163.390625 L 652.175781 657.746094 L 157.824219 657.746094 Z M 157.824219 163.390625 " fill-opacity="1" fill-rule="nonzero"/></g><g clip-path="url(#ae391bc7f0)"><path fill="#543b79" d="M 679.640625 81 L 130.359375 81 C 100.039062 81 75.429688 105.582031 75.429688 135.929688 L 75.429688 685.210938 C 75.429688 715.558594 100.039062 740.140625 130.359375 740.140625 L 679.640625 740.140625 C 709.960938 740.140625 734.570312 715.558594 734.570312 685.210938 L 734.570312 135.929688 C 734.570312 105.582031 709.960938 81 679.640625 81 Z M 564.648438 543.855469 L 564.648438 543.910156 C 559.15625 557.144531 550.449219 568.820312 539.300781 577.800781 C 527.765625 587.136719 513.152344 594.828125 495.164062 600.320312 C 477.203125 605.894531 455.835938 608.695312 431.089844 608.695312 L 254.441406 608.695312 L 254.441406 224.199219 L 441.253906 224.199219 C 475.800781 224.199219 503.488281 231.96875 524.195312 247.816406 C 545.066406 263.746094 555.449219 287.476562 555.449219 319.5 C 555.449219 338.859375 550.726562 355.476562 541.222656 369.207031 C 531.773438 382.859375 518.152344 393.542969 500.574219 400.957031 L 500.574219 402.222656 C 524.03125 407.164062 542.183594 418.289062 554.128906 435.589844 C 566.078125 452.890625 572.203125 474.753906 572.203125 501.148438 C 572.203125 515.921875 569.34375 529.984375 563.960938 543.113281 Z M 564.648438 543.855469 " fill-opacity="1" fill-rule="nonzero"/></g><path fill="#543b79" d="M 488.410156 449.15625 C 477.148438 438.859375 461.328125 433.832031 440.894531 433.832031 L 322.195312 433.832031 L 322.195312 553.796875 L 441.226562 553.796875 C 461.546875 553.796875 477.476562 548.523438 488.738281 537.867188 C 500 527.292969 505.765625 512.214844 505.765625 492.824219 C 505.574219 473.875 500 459.207031 488.738281 449.15625 Z M 488.410156 449.15625 " fill-opacity="1" fill-rule="nonzero"/><path fill="#543b79" d="M 471.820312 371.625 L 471.929688 371.625 C 482.804688 362.398438 488.132812 349.1875 488.132812 331.96875 C 488.132812 312.632812 483.328125 298.902344 473.578125 291.046875 C 463.910156 283.21875 449.957031 279.152344 431.613281 279.152344 L 321.757812 279.152344 L 321.757812 385.246094 L 431.613281 385.246094 C 447.625 385.246094 461.273438 380.578125 471.820312 371.625 Z M 471.820312 371.625 " fill-opacity="1" fill-rule="nonzero"/></svg>