<svg xmlns="http://www.w3.org/2000/svg" xmlns:xlink="http://www.w3.org/1999/xlink" width="1080" zoomAndPan="magnify" viewBox="0 0 810 809.999993" height="1080" preserveAspectRatio="xMidYMid meet" version="1.0"><defs><clipPath id="1096f43a8e"><path d="M 121.058594 82 L 688.808594 82 L 688.808594 728 L 121.058594 728 Z M 121.058594 82 " clip-rule="nonzero"/></clipPath></defs><g clip-path="url(#1096f43a8e)"><path fill="#e44d26" d="M 172.597656 662.800781 L 120.898438 82.820312 L 688.96875 82.820312 L 637.226562 662.71875 L 404.570312 727.199219 Z M 172.597656 662.800781 " fill-opacity="1" fill-rule="nonzero"/></g><path fill="#f16529" d="M 592.914062 625.789062 L 637.148438 130.242188 L 404.933594 130.242188 L 404.933594 677.925781 Z M 592.914062 625.789062 " fill-opacity="1" fill-rule="nonzero"/><path fill="#ebebeb" d="M 404.691406 201.367188 L 226.59375 201.367188 L 245.78125 416.476562 L 404.933594 416.476562 L 404.933594 345.351562 L 310.832031 345.351562 L 304.328125 272.515625 L 404.933594 272.515625 L 404.933594 201.367188 Z M 404.933594 529.851562 L 404.632812 529.933594 L 325.429688 508.546875 L 320.394531 451.820312 L 248.964844 451.820312 L 258.929688 563.503906 L 404.609375 603.777344 L 404.933594 603.675781 Z M 404.933594 529.851562 " fill-opacity="1" fill-rule="nonzero"/><path fill="#ffffff" d="M 404.691406 416.476562 L 492.269531 416.476562 L 484.21875 508.707031 L 404.894531 530.113281 L 404.894531 604.121094 L 550.695312 563.703125 L 570.226562 345.3125 L 404.933594 345.3125 Z M 581.136719 220.460938 L 582.828125 201.367188 L 404.652344 201.367188 L 404.652344 272.496094 L 576.425781 272.496094 L 577.835938 256.503906 Z M 581.136719 220.460938 " fill-opacity="1" fill-rule="nonzero"/></svg>