<svg xmlns="http://www.w3.org/2000/svg" xmlns:xlink="http://www.w3.org/1999/xlink" width="500" zoomAndPan="magnify" viewBox="0 0 375 149.999998" height="200" preserveAspectRatio="xMidYMid meet" version="1.0"><defs><g/><clipPath id="ffdcaa1ac4"><path d="M 323.199219 95.460938 L 346.121094 95.460938 L 346.121094 118.382812 L 323.199219 118.382812 Z M 323.199219 95.460938 " clip-rule="nonzero"/></clipPath><clipPath id="30ce36a8a3"><path d="M 334.660156 95.460938 C 328.328125 95.460938 323.199219 100.589844 323.199219 106.921875 C 323.199219 113.25 328.328125 118.382812 334.660156 118.382812 C 340.988281 118.382812 346.121094 113.25 346.121094 106.921875 C 346.121094 100.589844 340.988281 95.460938 334.660156 95.460938 Z M 334.660156 95.460938 " clip-rule="nonzero"/></clipPath></defs><g fill="#ffffff" fill-opacity="1"><g transform="translate(19.663506, 118.345322)"><g><path d="M 72.765625 -47.25 L 92.140625 -47.25 L 92.140625 -10.078125 C 87.160156 -6.328125 81.398438 -3.445312 74.859375 -1.4375 C 68.316406 0.570312 61.726562 1.578125 55.09375 1.578125 C 45.582031 1.578125 37.03125 -0.445312 29.4375 -4.5 C 21.851562 -8.5625 15.898438 -14.191406 11.578125 -21.390625 C 7.265625 -28.585938 5.109375 -36.726562 5.109375 -45.8125 C 5.109375 -54.882812 7.265625 -63.019531 11.578125 -70.21875 C 15.898438 -77.414062 21.898438 -83.039062 29.578125 -87.09375 C 37.253906 -91.15625 45.890625 -93.1875 55.484375 -93.1875 C 63.515625 -93.1875 70.800781 -91.832031 77.34375 -89.125 C 83.882812 -86.414062 89.382812 -82.488281 93.84375 -77.34375 L 80.21875 -64.78125 C 73.675781 -71.675781 65.78125 -75.125 56.53125 -75.125 C 50.6875 -75.125 45.492188 -73.898438 40.953125 -71.453125 C 36.421875 -69.015625 32.890625 -65.566406 30.359375 -61.109375 C 27.828125 -56.660156 26.5625 -51.5625 26.5625 -45.8125 C 26.5625 -40.132812 27.828125 -35.070312 30.359375 -30.625 C 32.890625 -26.175781 36.398438 -22.707031 40.890625 -20.21875 C 45.390625 -17.726562 50.519531 -16.484375 56.28125 -16.484375 C 62.382812 -16.484375 67.878906 -17.796875 72.765625 -20.421875 Z M 72.765625 -47.25 "/></g></g></g><g fill="#ffffff" fill-opacity="1"><g transform="translate(94.389681, 118.345322)"><g><path d="M 149.328125 -91.609375 L 119.359375 0 L 96.578125 0 L 76.4375 -62.03125 L 55.625 0 L 32.984375 0 L 2.875 -91.609375 L 24.859375 -91.609375 L 45.546875 -27.21875 L 67.140625 -91.609375 L 86.765625 -91.609375 L 107.703125 -26.703125 L 129.046875 -91.609375 Z M 149.328125 -91.609375 "/></g></g></g><g fill="#ffffff" fill-opacity="1"><g transform="translate(218.453724, 118.345322)"><g><path d="M 10.859375 -91.609375 L 52.484375 -91.609375 C 62.429688 -91.609375 71.21875 -89.707031 78.84375 -85.90625 C 86.476562 -82.113281 92.410156 -76.769531 96.640625 -69.875 C 100.878906 -62.988281 103 -54.96875 103 -45.8125 C 103 -36.644531 100.878906 -28.613281 96.640625 -21.71875 C 92.410156 -14.832031 86.476562 -9.488281 78.84375 -5.6875 C 71.21875 -1.894531 62.429688 0 52.484375 0 L 10.859375 0 Z M 51.4375 -17.40625 C 60.59375 -17.40625 67.894531 -19.957031 73.34375 -25.0625 C 78.800781 -30.164062 81.53125 -37.082031 81.53125 -45.8125 C 81.53125 -54.53125 78.800781 -61.441406 73.34375 -66.546875 C 67.894531 -71.648438 60.59375 -74.203125 51.4375 -74.203125 L 32.0625 -74.203125 L 32.0625 -17.40625 Z M 51.4375 -17.40625 "/></g></g></g><g clip-path="url(#ffdcaa1ac4)"><g clip-path="url(#30ce36a8a3)"><path fill="#f0f1be" d="M 323.199219 95.460938 L 346.121094 95.460938 L 346.121094 118.382812 L 323.199219 118.382812 Z M 323.199219 95.460938 " fill-opacity="1" fill-rule="nonzero"/></g></g></svg>