<svg xmlns="http://www.w3.org/2000/svg" xmlns:xlink="http://www.w3.org/1999/xlink" width="1080" zoomAndPan="magnify" viewBox="0 0 810 809.999993" height="1080" preserveAspectRatio="xMidYMid meet" version="1.0"><path fill="#ef9645" d="M 639.65625 244.320312 C 622.871094 232.589844 597.5625 234.839844 582.488281 247.285156 L 599.777344 222.164062 C 613.691406 202.328125 608.707031 180.863281 588.847656 166.9375 C 568.988281 153.0625 541.589844 157.847656 527.660156 177.738281 L 369.976562 402.394531 L 368.726562 401.839844 L 512.710938 190.363281 C 526.75 170.328125 524.125 144.941406 504.085938 130.886719 C 484.046875 116.890625 456.398438 121.726562 442.363281 141.796875 L 256.265625 404.625 C 242.210938 424.675781 249.101562 452.140625 269.140625 466.171875 C 272.554688 468.566406 276.230469 470.207031 279.984375 471.511719 L 279.984375 634.511719 L 458.578125 634.511719 L 458.578125 578.929688 C 461.1875 576.625 475.847656 565.304688 477.921875 562.339844 L 650.570312 306.421875 C 664.734375 286.265625 659.839844 258.464844 639.65625 244.320312 Z M 639.65625 244.320312 " fill-opacity="1" fill-rule="nonzero"/><path fill="#ffdc5d" d="M 678.339844 390.539062 C 678.339844 390.539062 698.558594 361.078125 669.074219 340.882812 C 639.621094 320.6875 619.421875 350.132812 619.421875 350.132812 L 525.640625 486.867188 C 522.410156 481.476562 518.871094 476.152344 514.925781 470.90625 L 645.085938 281.15625 C 645.085938 281.15625 665.285156 251.714844 635.816406 231.519531 C 606.367188 211.324219 586.167969 240.769531 586.167969 240.769531 L 463.742188 419.265625 C 459.1875 415.554688 454.523438 411.820312 449.71875 408.160156 L 591.652344 201.203125 C 591.652344 201.203125 611.851562 171.757812 582.382812 151.5625 C 552.929688 131.371094 532.730469 160.8125 532.730469 160.8125 L 390.800781 367.738281 C 385.585938 364.542969 380.425781 361.773438 375.246094 358.84375 L 507.90625 165.4375 C 507.90625 165.4375 528.105469 135.992188 498.65625 115.800781 C 469.207031 95.605469 449.007812 125.050781 449.007812 125.050781 L 308.738281 329.5625 L 297.503906 345.9375 L 287.414062 360.667969 C 375.78125 421.265625 384.195312 535.273438 333.703125 608.890625 C 323.613281 623.621094 308.878906 613.53125 308.878906 613.53125 C 369.476562 525.167969 350.972656 425.875 262.585938 365.289062 L 288.644531 234.910156 C 288.644531 234.910156 298.378906 200.558594 264.035156 190.808594 C 229.671875 181.078125 219.921875 215.433594 219.921875 215.433594 L 189.828125 304.78125 C 177.898438 340.203125 165.199219 375.503906 148.394531 408.894531 C 100.941406 503.167969 129.28125 620.335938 218.761719 681.703125 C 316.363281 748.605469 449.792969 723.734375 516.730469 626.171875 C 520.265625 620.996094 523.230469 615.941406 526.050781 610.90625 L 526.839844 611.441406 Z M 678.339844 390.539062 " fill-opacity="1" fill-rule="nonzero"/><path fill="#5dadec" d="M 512.15625 653.117188 C 583.597656 653.117188 655.785156 580.945312 655.785156 509.527344 C 655.785156 499.652344 663.019531 491.671875 672.894531 491.671875 C 682.769531 491.671875 691.503906 499.652344 691.503906 509.527344 C 691.503906 616.65625 619.316406 688.828125 512.15625 688.828125 C 502.28125 688.828125 494.296875 680.097656 494.296875 670.222656 C 494.296875 660.347656 502.28125 653.117188 512.15625 653.117188 Z M 512.15625 653.117188 " fill-opacity="1" fill-rule="nonzero"/><path fill="#5dadec" d="M 601.457031 688.078125 C 655.035156 688.078125 690.753906 652.367188 690.753906 598.800781 C 690.753906 588.925781 698.738281 580.945312 708.613281 580.945312 C 718.488281 580.945312 726.472656 588.925781 726.472656 598.800781 C 726.472656 670.222656 672.894531 723.789062 601.457031 723.789062 C 591.578125 723.789062 583.597656 715.808594 583.597656 705.933594 C 583.597656 696.058594 591.578125 688.078125 601.457031 688.078125 Z M 297.84375 116.710938 C 307.699219 116.710938 315.703125 124.710938 315.703125 134.566406 C 315.703125 144.421875 307.699219 152.421875 297.84375 152.421875 C 226.402344 152.421875 154.964844 216.503906 154.964844 295.261719 C 154.964844 305.117188 146.964844 313.117188 137.105469 313.117188 C 127.246094 313.117188 119.246094 305.117188 119.246094 295.261719 C 119.246094 196.808594 190.683594 116.710938 297.84375 116.710938 Z M 297.84375 116.710938 " fill-opacity="1" fill-rule="nonzero"/><path fill="#5dadec" d="M 208.542969 81.75 C 218.402344 81.75 226.402344 89 226.402344 98.855469 C 226.402344 108.710938 218.402344 117.460938 208.542969 117.460938 C 154.964844 117.460938 119.996094 157.1875 119.996094 205.988281 C 119.996094 215.84375 111.261719 223.84375 101.386719 223.84375 C 91.511719 223.84375 84.277344 215.84375 84.277344 205.988281 C 84.277344 137.476562 137.105469 81.75 208.542969 81.75 Z M 208.542969 81.75 " fill-opacity="1" fill-rule="nonzero"/></svg>